<svg width="70" height="70" viewBox="0 0 70 70" fill="none" xmlns="http://www.w3.org/2000/svg">
<rect width="70" height="70" fill="white"/>
<path fill-rule="evenodd" clip-rule="evenodd" d="M63.9133 38.6996C59.5703 42.9963 56.1626 45.6439 53.6901 46.6404C51.2175 47.6379 45.8086 47.6379 37.4641 46.6404L34.4567 38.6996L40.5524 14.1865L48.2645 10.3757" fill="#FFE166"/>
<path d="M63.9133 38.6996C59.5703 42.9963 56.1626 45.6439 53.6901 46.6404C51.2175 47.6379 45.8086 47.6379 37.4641 46.6404L34.4567 38.6996L40.5524 14.1865L48.2645 10.3757" stroke="#844C22" stroke-linecap="round" stroke-linejoin="round"/>
<path d="M48.725 36.9085C50.5044 36.9085 51.9468 35.4156 51.9468 33.574C51.9468 31.7325 50.5044 30.2396 48.725 30.2396C46.9456 30.2396 45.5032 31.7325 45.5032 33.574C45.5032 35.4156 46.9456 36.9085 48.725 36.9085Z" fill="#EABC20"/>
<path d="M40.9003 24.5233C41.9171 24.5233 42.7413 23.6703 42.7413 22.6179C42.7413 21.5656 41.9171 20.7125 40.9003 20.7125C39.8835 20.7125 39.0593 21.5656 39.0593 22.6179C39.0593 23.6703 39.8835 24.5233 40.9003 24.5233Z" fill="#F8C722"/>
<path fill-rule="evenodd" clip-rule="evenodd" d="M48.591 10.433H51.6186L65.9999 36.7658L63.6875 38.6903" fill="#EABC20"/>
<path d="M48.591 10.433H51.6186L65.9999 36.7658L63.6875 38.6903" stroke="#844C22"/>
<path fill-rule="evenodd" clip-rule="evenodd" d="M29.9967 57.0585C22.755 55.7885 18.2325 54.1375 16.4264 52.1044C13.7183 49.0558 11.578 43.7616 15.2104 38.0044C18.8419 32.2482 23.4868 30.3589 29.9967 28.968C36.5066 27.578 43.5026 29.4082 46.0156 31.1183C48.5286 32.8284 50.2463 33.0208 51.5442 36.904C52.4095 39.4925 51.8793 43.2652 49.9554 48.2231L29.9967 57.0585Z" fill="#F5F2EC" stroke="#A14638"/>
<path fill-rule="evenodd" clip-rule="evenodd" d="M30.4027 57.0584C29.4232 55.2855 28.9335 53.6325 28.9335 52.0996C28.9335 49.8017 29.9682 44.4323 35.1231 40.1222C40.278 35.8122 46.7373 34.1631 50.4387 35.7226C52.4491 36.4676 52.4491 40.6262 50.4387 48.1973L30.4027 57.0584Z" fill="#F6E4AD" stroke="#782A24"/>
<path fill-rule="evenodd" clip-rule="evenodd" d="M13.2846 44.6733C14.6672 48.3489 17.1858 50.6487 20.8393 51.5719C24.4919 52.496 26.9976 52.9819 28.3563 53.0305C28.6877 54.1909 28.9887 55.0921 29.2611 55.7333C29.5336 56.3754 29.7306 56.8165 29.854 57.0585C24.6171 56.1753 20.7776 55.0054 18.3337 53.5478C15.8897 52.0911 14.207 49.1329 13.2846 44.6733Z" fill="#E1DBD4"/>
<path fill-rule="evenodd" clip-rule="evenodd" d="M20.7287 33.2408C20.042 34.3203 20.6054 35.01 22.4188 35.3111C25.1389 35.7617 28.3874 33.9801 29.8796 35.3111C31.3717 36.642 28.5025 37.6033 29.8796 38.6608C30.7973 39.3658 32.9357 39.3658 36.2974 38.6608C33.0324 41.7161 30.894 44.2598 29.8796 46.29C28.8652 48.3212 28.2908 50.6401 28.1564 53.2476C23.5068 53.2419 20.0715 52.4759 17.8512 50.9478C15.6309 49.4206 14.1166 47.4704 13.3093 45.1001C13.139 43.3852 13.8533 41.2378 15.4523 38.6598C17.0521 36.0828 18.8103 34.2764 20.7287 33.2408Z" fill="#DDD9CF"/>
<path fill-rule="evenodd" clip-rule="evenodd" d="M30.014 57.0585C22.7649 55.7886 18.2369 54.1375 16.429 52.1045C13.7181 49.0539 11.5769 43.7569 15.2121 37.9987C18.8481 32.2406 23.4967 30.3504 30.014 28.9604C33.7145 28.1697 39.9556 28.1811 44.7258 30.2847C48.3554 31.8843 50.7395 34.1669 51.5836 36.8974C52.3863 39.4973 51.857 43.271 49.993 48.2212L30.014 57.0585Z" stroke="#782A24"/>
<path fill-rule="evenodd" clip-rule="evenodd" d="M28.9335 30.3828C33.9126 30.9115 37.3489 31.6117 39.2415 32.4835C41.1341 33.3542 42.7422 34.2422 44.065 35.1463C44.4204 34.91 44.9791 34.7919 45.7431 34.7919H48.2644C45.4937 33.197 43.0479 32.0633 40.9279 31.3907C38.8052 30.7191 34.8074 30.3828 28.9335 30.3828Z" fill="#FFFCFF"/>
<path fill-rule="evenodd" clip-rule="evenodd" d="M35.0061 53.4639C33.0638 55.6113 36.548 56.1887 41.0521 56.9289C45.5562 57.6692 51.4972 55.1226 54.4475 52.0578C57.3987 48.992 57.0968 43.7206 54.4475 43.7206C51.7992 43.7206 36.9484 51.3166 35.0061 53.4639Z" fill="#F6E4AD" stroke="#782A24"/>
<path fill-rule="evenodd" clip-rule="evenodd" d="M35.377 55.3913C39.5745 59.2145 44.5085 60.615 50.1789 59.5927C55.8493 58.5724 57.9941 54.0165 56.6143 45.9252C55.9635 49.4302 54.9785 51.7215 53.6585 52.799C51.6784 54.4148 50.5278 55.8981 45.383 56.9147C41.9522 57.592 38.6172 57.0843 35.377 55.3913Z" fill="#ECE9E1" stroke="#782A24" stroke-linecap="round" stroke-linejoin="round"/>
<path fill-rule="evenodd" clip-rule="evenodd" d="M45.9242 53.2477C44.5821 54.1747 44.247 54.9635 44.9172 55.6152C45.9242 56.5936 47.3437 56.0277 47.3437 54.6386C47.3437 53.7116 46.8705 53.2486 45.9242 53.2486V53.2477ZM42.0599 53.2477C41.0289 53.8831 40.6855 54.2004 41.0289 54.2004H43.6616L42.0599 53.2477Z" fill="#C6B79B"/>
<path fill-rule="evenodd" clip-rule="evenodd" d="M13.2755 46.5787C13.8766 45.9433 12.8981 45.626 10.3427 45.626C7.78733 45.626 6.00705 46.5664 5 48.446C7.40256 48.87 9.91005 50.1047 12.5206 52.1521C13.8941 52.5027 14.9968 52.5027 15.829 52.1521C15.6441 51.2357 15.2377 50.3829 14.648 49.6731C14.0607 48.9681 13.6041 47.9373 13.2764 46.5787H13.2755Z" fill="#74B606" stroke="#782A24"/>
<path fill-rule="evenodd" clip-rule="evenodd" d="M15.7019 52.4712C12.8022 52.0787 11.0054 52.3407 10.3122 53.2581C9.61815 54.1746 8.46198 55.6161 6.84094 57.5815C9.85656 58.8715 11.9959 59.204 13.2551 58.579C15.1459 57.6415 15.0363 59.9166 17.2428 59.9166C18.7129 59.9166 19.4272 59.1382 19.3858 57.5815C20.194 58.2465 20.9507 58.579 21.6549 58.579C22.3591 58.579 22.6177 57.6873 22.4309 55.9028C20.7712 55.6513 19.4788 55.1473 18.5546 54.3918C17.6646 53.659 16.7091 53.0159 15.7009 52.4712H15.7019Z" fill="#95CE3D" stroke="#782A24"/>
<path fill-rule="evenodd" clip-rule="evenodd" d="M7.65121 57.3672C10.4431 55.256 12.3431 54.2004 13.3529 54.2004C14.3618 54.2004 16.0574 54.4167 18.4397 54.8501L19.6134 55.5285C16.606 54.8949 14.5192 54.6691 13.3529 54.8501C12.1857 55.0321 10.2857 55.8714 7.65121 57.3672ZM5.75494 48.0212C9.08354 47.1304 11.1676 46.977 12.0034 47.561C12.8411 48.145 13.2737 48.4118 13.305 48.3594L13.8776 49.4121C13.1885 49.0495 12.4937 48.6986 11.7936 48.3594C10.7276 47.8344 8.71533 47.7211 5.75494 48.0212Z" fill="#609F06"/>
</svg>
