<svg width="67" height="52" viewBox="0 0 67 52" fill="none" xmlns="http://www.w3.org/2000/svg">
<g clip-path="url(#clip0)">
<path d="M38.8655 6.02776L38.7458 5.63727L38.3671 5.69357C38.3587 5.695 38.3503 5.69572 38.3418 5.69715C38.557 5.66631 38.7703 5.61934 38.9753 5.54511C39.6028 5.31777 40.0636 4.84122 40.1773 4.30119C40.3809 3.33338 39.3884 1.9618 38.4703 1.60465C37.4536 1.20842 36.2123 1.13348 35.0057 1.06033L34.9762 1.05853C34.5554 1.03307 34.1581 1.00869 33.7795 0.97104C30.4054 0.631104 26.9854 0.458984 23.6145 0.458984L23.3267 0.459343C21.3526 0.464722 19.37 0.527474 17.4338 0.645447C16.3631 0.71035 15.3355 0.817567 14.5353 1.41174C13.6204 2.09053 13.2628 3.35669 13.7207 4.29366C14.0096 4.8864 14.6181 5.35471 15.3902 5.5781C15.4685 5.60069 15.5475 5.62077 15.6268 5.63834L15.3253 5.57846L15.2112 5.98187C12.6458 15.0558 9.99258 24.4381 9.61916 34.0682C9.53072 36.3326 9.62478 38.6734 10.9026 40.4516C12.3941 42.5253 15.1196 43.2371 17.5893 43.6599C21.2417 44.286 25.4534 44.6166 29.7684 44.6166C30.9536 44.6166 32.1514 44.5915 33.3292 44.5416L34.421 44.4957L33.6135 43.7438C33.2779 43.4318 32.9779 43.0976 32.7213 42.7509C31.4305 41.0042 31.1522 38.8452 30.9613 36.6008C30.9564 36.5435 30.9487 36.4757 30.9402 36.4022C30.8722 35.8127 30.8339 35.1687 31.2438 34.9926C31.2954 34.9704 31.3533 34.9578 31.4203 34.9542L31.8092 34.9327L31.8436 34.5365C31.9324 33.5106 32.4553 32.5298 33.2421 31.912C33.864 31.4236 34.6551 31.1547 35.4696 31.1547C35.537 31.1547 35.6051 31.1565 35.6718 31.1604L36.2579 31.1938L36.1364 30.6071C35.9287 29.602 36.2842 28.5044 37.0209 27.8762C37.4827 27.4821 38.0955 27.2651 38.7465 27.2651C39.1725 27.2651 39.5909 27.3605 39.9566 27.5416L40.3735 27.7474L40.5627 27.3157C40.7574 26.8703 41.0838 26.4838 41.506 26.1987C41.8026 25.9983 42.1402 25.8584 42.4824 25.7932L42.8446 25.7243L42.8495 25.3482C42.9355 18.7291 41.558 12.0487 38.8655 6.02776V6.02776ZM15.6727 5.64767C15.6959 5.65269 15.7194 5.65663 15.7429 5.66129C15.7384 5.66058 15.7335 5.65986 15.7289 5.65878L15.6727 5.64767ZM17.2338 5.77676C17.2141 5.7764 17.1952 5.7764 17.1755 5.7764C17.1948 5.7764 17.2145 5.7764 17.2338 5.77676ZM17.0285 5.77461C17.0032 5.77425 16.9783 5.77389 16.953 5.77317C16.9779 5.77389 17.0032 5.77425 17.0285 5.77461ZM16.7888 5.76887C16.7747 5.76851 16.7603 5.76815 16.746 5.76743C16.7603 5.76779 16.7744 5.76851 16.7888 5.76887ZM31.2393 27.8152C31.0775 29.2391 30.6275 30.5021 29.9383 31.4677C29.3459 32.2964 28.5404 32.9368 27.6697 33.271L27.2988 33.4134L27.3904 33.8071C27.8118 35.6137 27.9961 37.4704 27.9392 39.3268C27.9115 40.2483 27.8094 41.2993 27.2612 42.1061C27.0812 42.3722 26.8106 42.5583 26.6039 42.5583C26.5456 42.5583 26.4923 42.5447 26.44 42.5164C26.1424 42.3564 26.1771 41.8107 26.1887 41.6307L26.713 33.6278L26.3066 33.5629C26.1396 33.5364 25.9665 33.4733 25.8142 33.4177L25.7005 33.3768C24.8786 33.0882 24.144 32.593 23.5762 31.945C22.7539 31.008 22.2868 29.7473 22.2942 28.4872C22.2973 28.0146 22.3647 27.5237 22.4296 27.0493L21.9846 26.9855L22.4314 27.0378C22.5363 26.2715 22.6444 25.4837 22.4921 24.7285C22.517 24.7511 23.3477 25.4948 23.3477 25.4948L23.3126 24.4356C23.2895 23.732 23.3642 22.9894 23.5232 22.3443L23.5555 22.2134C23.7475 21.4368 23.9633 20.5647 23.784 19.7464L24.0703 19.7848L24.0914 19.2845C24.103 19.0109 24.1384 18.7269 24.177 18.434L24.1876 18.3526C24.1963 18.2866 24.2048 18.2206 24.2121 18.1568C24.375 16.8283 24.681 15.5194 25.1221 14.264C25.3917 14.4483 25.6521 14.6563 25.8981 14.8837L26.9331 15.8411L26.2424 12.5683L26.5807 12.5536C26.5463 12.8354 26.5161 13.118 26.4909 13.4009L27.1043 13.5175C27.0864 13.5827 27.0689 13.6484 27.052 13.714L27.8273 14.1299C28.1519 13.7427 28.5088 13.388 28.89 13.0739C29.4371 14.5434 29.7031 16.1462 29.6596 17.7222L29.6442 18.287L30.0699 18.2088C30.5426 19.9472 30.7012 21.8158 30.5286 23.6205L30.4321 24.6321L31.1677 24.0895C31.2919 25.2162 31.386 26.5168 31.2393 27.8152V27.8152ZM36.9773 5.75273L37.2083 5.75237C37.2662 5.75237 37.3251 5.75237 37.3848 5.75201C37.3255 5.75237 37.2665 5.75237 37.2093 5.75237L36.9773 5.75273ZM38.2678 5.70683C38.2229 5.71221 38.1783 5.71723 38.1334 5.72154C38.1783 5.71723 38.2229 5.71221 38.2678 5.70683ZM38.0713 5.72763C38.0119 5.73229 37.9526 5.73624 37.894 5.73946C37.953 5.73624 38.0119 5.73229 38.0713 5.72763ZM37.8182 5.74305C37.7698 5.7452 37.7217 5.74664 37.6736 5.74807C37.7217 5.74664 37.7698 5.74484 37.8182 5.74305ZM37.6294 5.74915C37.5659 5.75058 37.5034 5.7513 37.4413 5.75166C37.5038 5.7513 37.5662 5.75058 37.6294 5.74915Z" fill="#F6E4AD"/>
<path d="M49.6102 32.8637C49.2101 32.4348 48.6096 32.1784 48.0039 32.1784C47.7919 32.1784 47.5859 32.2096 47.3904 32.2713C48.0365 31.6158 48.1492 30.4942 47.6473 29.7182C47.2946 29.1721 46.6296 28.8189 45.9526 28.8189C45.7048 28.8189 45.4679 28.8648 45.2493 28.9551C45.4181 28.3265 45.3086 27.6137 44.9489 26.9994C44.5888 26.3863 44.0262 25.9513 43.4043 25.8057C43.2467 25.7691 43.0825 25.7505 42.9165 25.7505C42.4287 25.7505 41.9408 25.9058 41.506 26.1987C40.922 26.5921 40.5212 27.1859 40.4065 27.8281C39.9566 27.4652 39.3673 27.2651 38.7465 27.2651C38.0948 27.2651 37.482 27.4824 37.0212 27.8762C36.0817 28.6769 35.7964 30.1682 36.3709 31.2716C36.0803 31.1927 35.7757 31.1525 35.4665 31.1525C34.6561 31.1525 33.8661 31.4225 33.2421 31.912C32.4216 32.5549 31.8955 33.574 31.8345 34.6379L31.8145 34.9861L32.1373 35.0987C32.4076 35.1934 32.7087 35.3246 33.1077 35.5064L33.1449 35.5233C33.3937 35.6362 33.6085 35.7338 33.758 35.78C35.6921 36.3839 37.7073 36.7744 39.7484 36.9415C40.4988 37.0024 41.2617 37.0333 42.0156 37.0333C43.2962 37.0333 44.5849 36.9447 45.8462 36.7697C46.5759 36.6679 47.3132 36.5076 48.0264 36.3523L48.0773 36.3412C48.2057 36.3125 48.3341 36.2846 48.4626 36.2569L48.4812 36.253C48.9122 36.1598 49.4007 36.0543 49.8794 35.9349L50.6785 35.7356L50.0822 35.1565C50.3556 34.3812 50.1661 33.46 49.6102 32.8637V32.8637Z" fill="white"/>
<path d="M51.6795 35.6442L51.5447 35.4699H51.3271C51.1776 35.4699 51.0155 35.5298 50.7301 35.6556L50.7154 35.6621C50.5585 35.7327 50.4171 35.7944 50.276 35.8328C49.6731 35.9956 49.0673 36.1261 48.4805 36.2527L48.0748 36.3409C47.3466 36.5008 46.5942 36.6658 45.8459 36.769C44.586 36.9444 43.2987 37.0333 42.0195 37.0333C41.2642 37.0333 40.5002 37.0025 39.7485 36.9408C37.7066 36.7744 35.6908 36.3839 33.757 35.7797C33.6058 35.7327 33.3843 35.632 33.1281 35.5154L33.1032 35.5039C32.3722 35.1708 31.8169 34.9492 31.4828 34.9492C31.4116 34.9492 31.3477 34.9578 31.287 34.9761L31.2579 34.9851L31.2302 34.9976C30.8711 35.1622 30.8518 35.6373 30.9399 36.4011C30.9483 36.4757 30.9561 36.5442 30.961 36.6008C31.1596 38.9313 31.4291 41.0028 32.721 42.7502C33.6854 44.0565 35.1489 45.0681 37.07 45.7572C38.4875 46.2657 40.012 46.5347 41.4787 46.5347C42.4161 46.5347 43.3303 46.4278 44.1957 46.217C46.6008 45.6325 48.7694 44.1967 50.1462 42.2776C51.0348 41.0369 51.6075 39.5817 51.8016 38.0725L51.8195 37.9402C51.9234 37.1409 51.9999 36.38 51.7925 35.8514C51.7591 35.7668 51.7219 35.699 51.6795 35.6442V35.6442Z" fill="#F7B36F"/>
<path d="M31.3314 23.9589L31.2514 23.1679L30.621 23.6344C30.6182 23.6362 30.6158 23.6383 30.6133 23.6401C30.8323 21.858 30.7344 19.9987 30.3259 18.2496L30.1139 17.3402L29.7707 17.7748C29.8777 16.1006 29.6461 14.3919 29.0947 12.8113L28.875 12.1813L28.3788 12.6177C27.6611 13.2481 27.0322 14.0305 26.5598 14.8796L26.5475 14.9015L26.5377 14.8886H26.5335C26.1745 14.464 25.7733 14.0864 25.3388 13.7644L24.8475 13.4005L24.6503 13.9871C24.2442 15.1948 23.9607 16.4459 23.8076 17.7049L23.7718 17.9824C23.7224 18.3632 23.6725 18.7544 23.6827 19.1306L23.4423 18.8925L23.4437 19.9794C23.4448 20.566 23.291 21.1835 23.1556 21.7292L23.1229 21.8612C22.9232 22.6752 22.8569 23.6297 22.9352 24.4652C22.9243 24.4552 22.8948 24.429 22.8853 24.4211L22.0718 23.7276L22.1494 24.8069C22.1912 25.3879 22.1073 25.9967 22.0248 26.5941C21.9581 27.0775 21.8897 27.5774 21.8869 28.069C21.8788 29.3968 22.3712 30.7246 23.2377 31.7118C23.8368 32.3953 24.6103 32.917 25.4719 33.2193L25.5793 33.2577C25.8179 33.3451 26.0685 33.4294 26.291 33.4362L25.7825 41.1949C25.766 41.4426 25.7217 42.101 26.1762 42.343C26.2661 42.3911 26.3647 42.4155 26.4693 42.4155C26.83 42.4155 27.1582 42.1218 27.3456 41.8464C27.9317 40.9829 28.0412 39.8817 28.0714 38.9179C28.1282 37.0507 27.944 35.1814 27.5232 33.362L27.4776 33.1641C28.4581 32.827 29.3566 32.1385 30.0181 31.2127C30.7355 30.209 31.2022 28.9012 31.3686 27.4303C31.5174 26.1186 31.4188 24.8209 31.3314 23.9589ZM26.7644 29.1365C26.7381 29.0687 26.7107 29.0006 26.6823 28.9332L26.8494 28.074C26.9132 27.7459 26.9564 27.4146 26.982 27.0811L27.3049 27.1689C27.0125 27.7846 26.8286 28.4552 26.7644 29.1365Z" fill="#E28F2A"/>
<path d="M52.0846 35.4275C51.9664 35.1259 51.7853 34.9223 51.547 34.8222C51.1507 34.6562 50.7584 34.8312 50.412 34.9854C50.4078 34.9872 50.4036 34.989 50.399 34.9911C50.6966 34.0703 50.465 32.9942 49.8097 32.2913C49.369 31.8187 48.7541 31.5326 48.1206 31.4749C48.3873 30.7376 48.3242 29.8713 47.8967 29.2093C47.4141 28.4628 46.5143 28.049 45.6499 28.1117C45.652 27.567 45.5015 27.0087 45.2084 26.5089C44.7862 25.7877 44.1191 25.2753 43.3785 25.1029C43.3105 25.0871 43.2417 25.0752 43.1729 25.0652C43.2543 18.4142 41.8737 11.7041 39.1783 5.64978C39.8599 5.3457 40.3554 4.78201 40.4902 4.1423C40.7425 2.94463 39.5897 1.34285 38.5045 0.920437C37.4215 0.498744 36.1426 0.421291 34.9058 0.346347C34.4791 0.320529 34.0762 0.296146 33.6975 0.258136C30.2227 -0.0914816 26.6921 -0.265035 23.1998 -0.255354C21.2331 -0.250333 19.2418 -0.187581 17.2813 -0.0685323C16.1418 0.000674092 15.0447 0.117572 14.1459 0.784534C13.058 1.5917 12.6393 3.11101 13.1927 4.24342C13.4735 4.81787 13.9943 5.29083 14.6576 5.58667L14.6569 5.58882C12.0823 14.6946 9.41965 24.1099 9.04449 33.7938C8.95324 36.1429 9.05642 38.5773 10.4153 40.467C12.0016 42.6734 14.831 43.4189 17.3891 43.857C21.0906 44.4914 25.3262 44.8198 29.6458 44.8198C31.137 44.8198 32.6383 44.7808 34.1309 44.7015C34.1752 44.699 34.2166 44.6882 34.2566 44.6739C34.9932 45.1698 35.8401 45.5915 36.7954 45.9343C38.2971 46.4729 39.8304 46.7444 41.3335 46.7444C42.2983 46.7444 43.2511 46.6325 44.1745 46.4076C46.6828 45.7973 48.9454 44.2974 50.3825 42.2929C51.315 40.992 51.9165 39.4637 52.1218 37.8741L52.1373 37.7554C52.2282 37.0619 52.3528 36.1117 52.0846 35.4275ZM43.1789 25.9979C43.6818 26.1148 44.1405 26.473 44.4377 26.98C44.735 27.4874 44.8269 28.0698 44.6901 28.5779C44.6448 28.7464 44.6971 28.9264 44.8245 29.0426C44.9522 29.1584 45.1333 29.1903 45.2916 29.1251C45.9335 28.8601 46.7656 29.1247 47.1467 29.7149C47.5282 30.3052 47.4391 31.1912 46.9484 31.69C46.8021 31.8388 46.774 32.0708 46.88 32.2515C46.9867 32.4326 47.2001 32.5162 47.3973 32.4541C47.9999 32.2645 48.7243 32.4581 49.1591 32.9242C49.5939 33.3904 49.748 34.1391 49.5335 34.7451C49.4711 34.9219 49.5216 35.1116 49.6466 35.2335C49.1829 35.3486 48.7169 35.4501 48.2628 35.5483C48.1269 35.5774 47.9911 35.6072 47.8549 35.6369C47.1344 35.7947 46.3894 35.9578 45.6594 36.059C43.6793 36.3344 41.6603 36.391 39.6584 36.2279C37.6496 36.0643 35.6664 35.6799 33.7631 35.0854C33.6329 35.0445 33.4055 34.9409 33.1644 34.8312C32.7935 34.6623 32.4586 34.5149 32.1568 34.4091C32.2098 33.4861 32.672 32.5832 33.3894 32.0203C34.1516 31.4225 35.2013 31.2077 36.1303 31.4598C36.303 31.5068 36.4865 31.4444 36.5974 31.3013C36.7087 31.1586 36.7262 30.9617 36.642 30.8007C36.1717 29.8975 36.4142 28.6288 37.1828 27.9729C37.9514 27.3167 39.2162 27.2988 40.0024 27.9328C40.1263 28.0325 40.2919 28.0586 40.4397 28.0016C40.5871 27.9446 40.6945 27.813 40.7225 27.6545C40.8148 27.136 41.1451 26.6516 41.6276 26.326C42.1105 26.0004 42.6759 25.8806 43.1789 25.9979ZM13.9964 3.83356C13.6399 3.10348 13.9434 2.06898 14.6738 1.52716C15.3764 1.00614 16.3334 0.908604 17.3347 0.847645C19.2783 0.729671 21.2524 0.667637 23.2019 0.662616C26.6588 0.652218 30.1648 0.825054 33.6094 1.17144C34.0056 1.21125 34.4173 1.23635 34.8528 1.26252C36.0219 1.33316 37.2309 1.40632 38.1848 1.77781C38.9042 2.05822 39.7637 3.22827 39.6121 3.94902C39.5321 4.32876 39.1741 4.68555 38.7 4.85695C38.2044 5.0366 37.6341 5.03732 37.0828 5.03803L17.3986 5.06242C16.7205 5.06278 16.0211 5.06421 15.3866 4.88062C14.7366 4.69236 14.2298 4.31083 13.9964 3.83356ZM17.5375 42.952C15.157 42.5443 12.5354 41.8655 11.1393 39.9238C9.94363 38.2614 9.85729 36.0127 9.94187 33.8304C10.3132 24.2613 12.9583 14.9033 15.5171 5.85345C16.1011 5.97035 16.6868 5.98039 17.2589 5.98039H17.3996L37.0839 5.956C37.4685 5.95529 37.8861 5.95457 38.3059 5.89254C38.3115 5.90975 38.3157 5.92732 38.3231 5.94453C40.9935 11.9088 42.3597 18.5275 42.2744 25.0864C41.8779 25.1613 41.488 25.3205 41.1328 25.56C40.6369 25.8946 40.253 26.3547 40.0269 26.8725C38.94 26.3357 37.5408 26.4712 36.6069 27.2683C35.7225 28.0231 35.3351 29.3033 35.5712 30.4457C34.6037 30.3912 33.6091 30.6906 32.8422 31.2923C31.9519 31.9905 31.3693 33.0971 31.27 34.2402C31.1531 34.2467 31.0443 34.27 30.9439 34.3134C30.188 34.6383 30.3052 35.6541 30.368 36.1999C30.3757 36.2687 30.3831 36.3311 30.3877 36.3849C30.5842 38.6981 30.8737 40.9271 32.2368 42.7716C32.5144 43.1474 32.8317 43.4988 33.1848 43.8273C27.7215 44.0575 22.1985 43.7506 17.5375 42.952ZM51.2469 37.6339L51.2311 37.7543C51.0455 39.1915 50.5011 40.5735 49.6578 41.7504C48.3445 43.582 46.2704 44.9543 43.9664 45.5148C41.8038 46.0412 39.3629 45.8827 37.093 45.0683C35.2571 44.4096 33.8646 43.4511 32.9538 42.2183C31.7329 40.5663 31.4749 38.5633 31.283 36.3053C31.2777 36.2436 31.2693 36.1716 31.2605 36.0927C31.1643 35.259 31.2703 35.1686 31.2886 35.1607C31.5262 35.0894 32.4176 35.496 32.7984 35.6692C33.077 35.7961 33.3178 35.9059 33.5006 35.9632C35.4656 36.5771 37.5138 36.9741 39.5872 37.143C41.6529 37.3111 43.7365 37.2527 45.7808 36.9687C46.5441 36.8625 47.3064 36.6958 48.0434 36.5344C48.1789 36.5047 48.314 36.4753 48.4488 36.4459C49.0408 36.3182 49.6536 36.1859 50.2653 36.0206C50.4436 35.9725 50.6103 35.8983 50.7714 35.8266C50.9019 35.7685 51.116 35.6731 51.2013 35.6731C51.2111 35.6857 51.2294 35.7137 51.2508 35.7685C51.4308 36.2289 51.3199 37.0745 51.2469 37.6339Z" fill="#844C22"/>
<path d="M31.4296 26.0801C31.523 25.2224 31.6198 24.3352 31.8037 23.4908C31.843 23.3104 31.7725 23.1232 31.6247 23.0164C31.477 22.9095 31.2811 22.9038 31.1274 23.0017C31.1067 23.0149 31.0853 23.0286 31.0646 23.0418C31.3327 21.1388 31.2952 19.2176 30.9506 17.3192C30.9327 17.2195 30.8519 16.881 30.5754 16.7186C30.5213 16.687 30.4641 16.6648 30.4059 16.6519C30.308 15.0594 29.8938 13.4845 29.1937 12.0595C29.1323 11.9348 29.0193 11.8455 28.8859 11.8164C28.7522 11.787 28.6132 11.8218 28.5076 11.91C28.1693 12.1929 27.8534 12.4992 27.5586 12.8251C27.8646 11.6296 28.2766 10.409 29.0544 9.46699C29.2144 9.27336 29.1905 8.98398 29.0007 8.82047C28.8111 8.65695 28.5279 8.68134 28.3679 8.87497C27.5309 9.88832 27.0817 11.1226 26.7563 12.336C26.5092 11.2538 26.2032 10.1809 25.8417 9.13602C25.7589 8.8972 25.5027 8.7717 25.2683 8.85633C25.0345 8.94095 24.9121 9.20307 24.9945 9.44189C25.4371 10.721 25.7944 12.043 26.0579 13.3727C25.8979 13.1873 25.7512 12.9983 25.6287 12.7946C25.5452 12.6559 25.3988 12.5705 25.2363 12.5763C25.0767 12.5798 24.931 12.6698 24.8535 12.8122C24.0094 14.3652 23.5816 16.1567 23.6185 17.9335C23.5104 17.9891 23.4258 18.0873 23.3896 18.2107C23.0088 19.5091 22.7155 20.8477 22.5182 22.1891C22.4796 22.4523 22.4456 22.732 22.4459 23.0139C22.3827 23.0149 22.3192 23.0293 22.2599 23.058C22.0995 23.1354 21.9988 23.3025 22.003 23.484C22.0216 24.2585 21.957 25.0563 21.8946 25.828C21.8514 26.3605 21.8068 26.9113 21.7886 27.4596C21.7303 29.199 21.9749 30.5115 22.5589 31.5901C22.7853 32.0085 23.2124 32.521 23.6739 32.9272C24.0908 33.2951 24.7292 33.7477 25.4009 33.8154C25.4588 33.8212 25.5157 33.824 25.5722 33.824C25.5834 33.824 25.5947 33.8222 25.6059 33.8222C25.6543 33.8481 25.708 33.866 25.7656 33.8721C25.7701 33.8724 25.7747 33.8728 25.7796 33.8732L25.1984 40.4743C25.1623 40.8874 25.0514 42.1439 25.9397 42.6366C26.1299 42.742 26.3317 42.7886 26.5328 42.7886C27.068 42.7886 27.5968 42.4573 27.8808 42.0241C28.231 41.4891 28.2974 40.8616 28.3353 40.2642C28.377 39.6076 28.3998 38.9421 28.4216 38.2981C28.477 36.6633 28.5332 34.9754 28.1538 33.326C28.7529 32.9803 29.3021 32.4869 29.7482 31.8687C30.727 30.5118 31.065 28.8326 31.2341 27.688C31.3131 27.1512 31.3724 26.6069 31.4296 26.0801V26.0801ZM28.1868 25.1815C27.7685 25.5921 27.413 26.0267 27.1227 26.4763C27.1747 25.4598 27.1701 24.3872 26.9865 23.3412C26.9995 23.2997 27.0083 23.2563 27.009 23.2104C27.0174 22.414 27.4716 21.4354 28.3974 20.2187C28.6279 19.9154 28.8803 19.6134 29.1238 19.3212C29.4737 18.9024 29.8321 18.4735 30.1542 18.0109C30.4336 19.8752 30.4027 21.7592 30.0609 23.6184C30.056 23.6457 30.0546 23.6729 30.0542 23.6998C29.4018 24.1405 28.7624 24.6171 28.1868 25.1815V25.1815ZM28.6388 13.013C29.2144 14.367 29.5211 15.8433 29.5299 17.3185C29.2958 17.6724 29.0333 18.0081 28.755 18.3469C28.5809 17.0284 28.0647 15.773 27.2599 14.7227C27.6481 14.0934 28.1099 13.52 28.6388 13.013ZM25.3202 13.9052C25.4957 14.1142 25.681 14.3104 25.8631 14.5026C26.032 14.6811 26.1913 14.8497 26.3418 15.0264C27.3013 16.1524 27.8766 17.6538 27.9204 19.1458C27.9222 19.205 27.9355 19.2609 27.9573 19.3126C27.8664 19.4259 27.7758 19.5396 27.6877 19.6554C27.1473 20.3661 26.7489 21.018 26.4875 21.6204C26.3983 21.4114 26.2983 21.2055 26.1857 21.0037C25.8982 20.4873 25.5434 20.024 25.2002 19.5758C24.9745 19.281 24.7569 18.9963 24.5615 18.7037C24.5615 18.6872 24.5632 18.6711 24.5615 18.6542C24.3962 17.0424 24.6646 15.3822 25.3202 13.9052ZM23.4068 22.3254C23.5486 21.3626 23.7413 20.4016 23.9813 19.4564C24.148 19.6912 24.3214 19.9179 24.4923 20.1413C24.8306 20.5827 25.15 21.0001 25.4052 21.4576C26.2583 22.9884 26.3236 24.8068 26.1983 26.8399C25.4936 25.7305 24.5618 24.7716 23.5525 23.8472C23.5433 23.7916 23.5251 23.7368 23.4949 23.6855C23.2822 23.324 23.338 22.7937 23.4068 22.3254ZM23.3451 31.1458C22.8432 30.2185 22.634 29.057 22.6863 27.4908C22.7042 26.9647 22.7477 26.4254 22.7899 25.9037C22.8281 25.4336 22.8667 24.9542 22.8881 24.4704C24.1687 25.6351 25.2588 26.7836 25.9312 28.2226C26.8767 30.2454 26.57 32.0397 26.0502 32.668C25.8968 32.853 25.7242 32.9254 25.4894 32.9014C24.7303 32.825 23.6964 31.7941 23.3451 31.1458V31.1458ZM27.5235 38.2665C27.5021 38.9034 27.4796 39.5617 27.4389 40.2047C27.4077 40.697 27.361 41.1671 27.1343 41.5128C26.9662 41.7695 26.603 41.9596 26.3685 41.8294C26.1236 41.6938 26.0309 41.2653 26.0934 40.5564L26.6837 33.8502C26.896 33.8183 27.1073 33.7677 27.3157 33.7003C27.627 35.1841 27.5751 36.749 27.5235 38.2665ZM30.5368 25.9786C30.4806 26.4964 30.4224 27.0318 30.3455 27.5506C30.0998 29.217 29.6801 30.4157 29.0252 31.324C28.4953 32.058 27.7755 32.5851 27.0258 32.8261C27.3536 32.2136 27.4916 31.4158 27.4242 30.4842C27.3856 29.9485 27.2761 29.3744 27.1164 28.8319C27.1448 28.7845 27.1666 28.7318 27.1771 28.6737C27.4017 27.4373 28.1886 26.4523 28.809 25.8438C29.3878 25.2762 30.0553 24.7917 30.7375 24.3395C30.6554 24.8896 30.5954 25.44 30.5368 25.9786V25.9786Z" fill="#52341B"/>
</g>
<path d="M64.2083 41.9702C64.2083 44.4296 63.684 46.1972 62.7836 47.4828C61.8849 48.7661 60.5743 49.6223 58.9006 50.1912C57.2197 50.7624 55.1953 51.0359 52.9055 51.1634C50.8866 51.2759 48.6895 51.274 46.3674 51.272C46.0567 51.2717 45.7438 51.2714 45.4289 51.2714C45.1139 51.2714 44.801 51.2717 44.4904 51.272C42.1683 51.274 39.9712 51.2759 37.9523 51.1634C35.6624 51.0359 33.638 50.7624 31.9572 50.1912C30.2834 49.6223 28.9728 48.7661 28.0741 47.4828C27.1738 46.1972 26.6495 44.4296 26.6495 41.9702C26.6495 39.6845 27.1028 37.5001 27.9289 35.4928C30.6561 28.8652 37.4546 24.1522 45.4289 24.1522C53.4031 24.1522 60.2016 28.8652 62.9289 35.4928C63.7549 37.5001 64.2083 39.6845 64.2083 41.9702Z" fill="#FEEBC6" stroke="#844C22"/>
<path d="M45.429 24.5599C37.8989 24.5599 31.2771 28.812 28.6912 35.0962C28.6912 35.0962 38.4312 39.2303 45.429 39.2303C52.4267 39.2303 62.1604 35.1009 62.1604 35.1009C59.5745 28.8167 52.959 24.5599 45.429 24.5599Z" fill="white"/>
<ellipse cx="44.9786" cy="29.3753" rx="0.450182" ry="0.453404" fill="#FFF4DE"/>
<ellipse cx="48.2847" cy="27.6316" rx="0.450182" ry="0.453404" fill="#FFF3DD"/>
<ellipse cx="41.7109" cy="27.6316" rx="0.450182" ry="0.453404" fill="#FFF3DD"/>
<defs>
<clipPath id="clip0">
<rect x="7.70825" width="46" height="47" fill="white"/>
</clipPath>
</defs>
</svg>
