<svg width="24" height="24" viewBox="0 0 24 24" fill="none" xmlns="http://www.w3.org/2000/svg">
<path d="M22 5.92212C21.2639 6.2483 20.4741 6.46951 19.6442 6.56827C20.4915 6.06085 21.1402 5.25601 21.4476 4.29993C20.6527 4.76984 19.7754 5.11105 18.8406 5.29601C18.092 4.49742 17.0271 4 15.8461 4C13.5803 4 11.7431 5.83716 11.7431 8.10173C11.7431 8.42291 11.7794 8.7366 11.8494 9.03657C8.44001 8.86533 5.41684 7.2319 3.39347 4.74984C3.03977 5.35474 2.83856 6.05957 2.83856 6.81196C2.83856 8.23546 3.56343 9.49147 4.66324 10.2263C3.99085 10.2038 3.35847 10.0189 2.80484 9.71141V9.76265C2.80484 11.7498 4.21958 13.4082 6.09546 13.7857C5.75177 13.8781 5.38935 13.9294 5.01442 13.9294C4.74948 13.9294 4.49327 13.9031 4.24206 13.8531C4.76445 15.4841 6.27919 16.6701 8.07387 16.7026C6.67037 17.8024 4.90069 18.456 2.97856 18.456C2.64739 18.456 2.32118 18.436 2 18.3998C3.81592 19.5658 5.97177 20.2457 8.28883 20.2457C15.8362 20.2457 19.9617 13.9944 19.9617 8.57291L19.9479 8.04176C20.754 7.46683 21.4513 6.74448 22 5.92212Z" fill="#A69895"/>
</svg>
