<svg width="24" height="24" viewBox="0 0 24 24" fill="none" xmlns="http://www.w3.org/2000/svg">
<path d="M1.38859 11.5899L6.45783 13.5654L8.41994 20.154C8.54549 20.576 9.03968 20.732 9.3677 20.4519L12.1934 18.0467C12.4896 17.7948 12.9115 17.7822 13.221 18.0168L18.3175 21.8803C18.6684 22.1466 19.1656 21.9458 19.2536 21.5031L22.987 2.75187C23.0831 2.26826 22.628 1.86481 22.187 2.04291L1.38265 10.4228C0.869238 10.6295 0.873711 11.3885 1.38859 11.5899ZM8.10373 12.5138L18.0109 6.14268C18.189 6.02852 18.3722 6.2799 18.2193 6.42798L10.043 14.3637C9.75556 14.643 9.57018 15.0168 9.51767 15.4225L9.23915 17.5777C9.20226 17.8654 8.81513 17.894 8.73909 17.6155L7.66791 13.6856C7.54522 13.2373 7.72401 12.7585 8.10373 12.5138Z" fill="#A69895"/>
</svg>
