<svg width="70" height="70" viewBox="0 0 70 70" fill="none" xmlns="http://www.w3.org/2000/svg">
<rect width="70" height="70" fill="white"/>
<path fill-rule="evenodd" clip-rule="evenodd" d="M23.0145 37.5664C26.6828 38.9105 29.4743 39.3049 31.3905 38.7508C34.2649 37.9196 34.2401 37.0592 36.6844 37.0149C39.1288 36.9707 40.3366 37.5232 43.5602 37.139C46.7836 36.7557 45.329 35.9431 48.8317 35.663C52.3353 35.3831 50.7492 37.1918 53.9101 36.808C57.0709 36.4242 57.664 34.6115 60.0619 34.7114C61.6617 34.7789 63.0253 34.9559 64.1529 35.2424L63.0869 21.6165C61.8563 20.4785 60.3326 20.0382 58.5159 20.2956C55.7894 20.6814 53.8608 21.9201 51.5566 22.3903C49.2534 22.8597 47.5856 20.7909 45.4292 21.4694C43.2718 22.1477 41.4819 23.976 39.4596 23.7313C37.4372 23.4865 37.1598 22.4694 34.6807 22.8567C32.2018 23.2431 31.8446 23.7395 29.5698 24.4796C28.054 24.9722 25.4564 24.6538 21.777 23.5246L23.0145 37.5664V37.5664Z" fill="#FFBEBE" stroke="#844C22" stroke-linecap="round" stroke-linejoin="round"/>
<path fill-rule="evenodd" clip-rule="evenodd" d="M63.2343 25.8932C62.5083 23.9487 60.6739 23.371 57.7319 24.1612C56.1118 24.5968 53.273 27.0467 51.9175 26.8094C49.5813 26.4009 47.5394 24.616 45.8595 25.1181C43.2041 25.9121 40.5473 28.1839 37.9919 28.1142C35.4374 28.0456 35.8674 26.6011 32.8965 27.4456C29.9265 28.2903 27.2708 29.3659 25.9915 29.3103C25.138 29.2735 23.915 28.9128 22.3203 28.2287L22.8717 32.8302C23.7292 33.4081 24.9568 33.6092 26.5527 33.4331C28.9456 33.1688 31.0804 30.7606 33.3035 30.8287C35.5256 30.8975 37.184 32.9622 39.511 32.2812C41.8378 31.6013 43.9194 29.6496 46.4688 29.3969C47.9299 29.2514 49.2428 31.0231 51.9717 30.6611C54.005 30.3902 57.5653 27.9707 58.5871 27.8582C60.182 27.6819 61.7814 28.1578 63.3832 29.2865L63.2341 25.8942L63.2343 25.8932Z" fill="#F08484"/>
<path fill-rule="evenodd" clip-rule="evenodd" d="M64.2435 31.6046C63.5174 29.6562 61.6808 29.0775 58.7362 29.8699C57.1147 30.3067 54.2731 32.7623 52.9166 32.5247C50.5796 32.116 48.5365 30.3279 46.8542 30.8311C44.1965 31.6273 41.537 33.9043 38.9797 33.8349C36.424 33.7669 36.8538 32.3191 33.8804 33.166C30.9079 34.0131 28.2498 35.0913 26.9695 35.0359C26.1162 34.9994 24.8923 34.6381 23.2966 33.953L23.6745 35.5914C24.5315 36.1702 25.7591 36.3713 27.3563 36.1945C29.7521 35.9293 31.8891 33.5157 34.1141 33.5835C36.3378 33.6521 37.9971 35.7207 40.3261 35.0379C42.6539 34.3559 44.7386 32.4 47.2901 32.1462C48.7523 32.0002 50.0659 33.7753 52.7972 33.411C54.8318 33.1411 58.3957 30.7149 59.4183 30.602C61.0145 30.425 62.6151 30.9016 64.2179 32.0323L64.2435 31.6046Z" fill="#F08484"/>
<path fill-rule="evenodd" clip-rule="evenodd" d="M63.2381 24.3561C62.512 22.4077 60.6763 21.8292 57.7318 22.6217C56.1103 23.0585 53.2677 25.5138 51.9122 25.2764C49.5742 24.8676 47.5312 23.0794 45.8497 23.5829C43.192 24.3791 40.5326 26.6561 37.9752 26.5867C35.4187 26.5184 35.8486 25.0697 32.8759 25.9178C29.9034 26.7648 27.2456 27.8421 25.9651 27.7877C25.1109 27.7509 23.8869 27.3897 22.2912 26.7046L22.6691 28.343C23.5271 28.922 24.7546 29.1231 26.3519 28.9463C28.7477 28.6811 30.8838 26.2673 33.1087 26.3351C35.3334 26.4038 36.9917 28.4722 39.3207 27.7895C41.6495 27.1076 43.7332 25.1515 46.2847 24.8978C47.7479 24.7519 49.0614 26.527 51.7919 26.1626C53.8265 25.8926 57.3903 23.4665 58.4129 23.3535C60.0101 23.1767 61.6097 23.6531 63.2135 24.784L63.2381 24.3561V24.3561Z" fill="#FDDCDC"/>
<path fill-rule="evenodd" clip-rule="evenodd" d="M63.2343 25.8932C62.5083 23.9487 60.6739 23.371 57.7319 24.1612C56.1118 24.5968 53.273 27.0467 51.9175 26.8094C49.5813 26.4009 47.5394 24.616 45.8595 25.1181C43.2041 25.9121 40.5473 28.1839 37.9919 28.1142C35.4374 28.0456 35.8674 26.6011 32.8965 27.4456C29.9265 28.2903 27.2708 29.3659 25.9915 29.3103C25.138 29.2735 23.915 28.9128 22.3203 28.2287L22.8717 32.8302C23.7292 33.4081 24.9568 33.6092 26.5527 33.4331C28.9456 33.1688 31.0804 30.7606 33.3035 30.8287C35.5256 30.8975 37.184 32.9622 39.511 32.2812C41.8378 31.6013 43.9194 29.6496 46.4688 29.3969C47.9299 29.2514 49.2428 31.0231 51.9717 30.6611C54.005 30.3902 57.5653 27.9707 58.5871 27.8582C60.182 27.6819 61.7814 28.1578 63.3832 29.2865L63.2341 25.8942L63.2343 25.8932Z" fill="#F08484"/>
<path fill-rule="evenodd" clip-rule="evenodd" d="M28.5703 15.9706C29.5036 19.7811 30.7266 22.3299 32.2414 23.6165C34.5134 25.5469 35.2039 25.0455 36.5936 27.0585C37.9844 29.0707 38.2017 30.3869 40.301 32.8588C42.401 35.3318 42.2594 33.664 44.4287 36.4272C46.5989 39.1907 44.2404 38.8819 46.3058 41.3022C48.3704 43.7222 50.1814 43.2013 51.4281 45.2572C52.2593 46.6278 52.8702 47.8631 53.2597 48.9648L63.8127 40.4473C64.0621 38.785 63.5781 37.2683 62.3607 35.8972C60.5355 33.8407 58.4534 32.9264 56.7932 31.2684C55.1328 29.6112 55.9008 27.0634 54.1515 25.6454C52.4022 24.2273 49.9151 23.7581 48.9953 21.9351C48.0744 20.1128 48.7521 19.3114 47.0632 17.4615C45.3733 15.6114 44.7688 15.5916 42.9046 14.1098C41.6621 13.1226 40.4835 10.7788 39.3687 7.07918L28.5703 15.9706Z" fill="#FFBEBE" stroke="#844C22" stroke-linecap="round" stroke-linejoin="round"/>
<path fill-rule="evenodd" clip-rule="evenodd" d="M60.3867 42.9778C61.5707 41.2855 61.0269 39.4337 58.7552 37.4233C57.5034 36.3154 53.9345 35.3185 53.3786 34.0577C52.4197 31.8819 52.7457 29.1827 51.407 28.0625C49.2899 26.2934 45.9676 25.3485 44.6105 23.1807C43.2544 21.0132 44.6697 20.5627 42.3373 18.5593C40.0049 16.5559 37.6585 14.9432 36.9964 13.846C36.5549 13.1148 36.1715 11.8934 35.8481 10.182L32.4004 13.2142C32.4035 14.2516 32.9179 15.3859 33.9446 16.6174C35.4844 18.4656 38.6292 18.8982 39.8034 20.789C40.9773 22.6807 40.2103 25.2167 42.0528 26.7755C43.8944 28.3342 46.638 28.979 48.2545 30.962C49.1804 32.0991 48.4634 34.1836 50.2684 36.2549C51.6134 37.7988 55.5562 39.4137 56.2131 40.2022C57.2399 41.4328 57.7356 43.032 57.7025 44.9977L60.3867 42.9778V42.9778Z" fill="#F08484"/>
<path fill-rule="evenodd" clip-rule="evenodd" d="M56.1919 46.9153C57.3762 45.2224 56.8323 43.3701 54.5592 41.3589C53.3081 40.251 49.7384 39.2538 49.1814 37.9924C48.2233 35.8162 48.5494 33.1161 47.2095 31.9954C45.0919 30.2258 41.7699 29.2809 40.4125 27.1125C39.0551 24.9441 40.4717 24.4937 38.1388 22.4898C35.8059 20.4858 33.459 18.8727 32.7967 17.7751C32.3552 17.0437 31.9717 15.8219 31.6473 14.1098L30.5233 15.3393C30.5263 16.3771 31.0407 17.5127 32.0675 18.7445C33.6076 20.5932 36.7534 21.025 37.9276 22.9172C39.102 24.8086 38.3348 27.3453 40.1767 28.9044C42.0196 30.4637 44.7638 31.1086 46.3807 33.0923C47.3068 34.2296 46.5895 36.3148 48.3938 38.3874C49.7402 39.9311 53.6839 41.5464 54.3409 42.3351C55.3669 43.5667 55.8637 45.1658 55.8303 47.1329L56.1919 46.9153Z" fill="#F08484"/>
<path fill-rule="evenodd" clip-rule="evenodd" d="M61.7029 42.173C62.8881 40.4804 62.3435 38.6269 60.0712 36.6168C58.82 35.5089 55.2503 34.5118 54.6934 33.2504C53.7353 31.0741 54.0615 28.3731 52.7215 27.2534C50.6038 25.4838 47.2818 24.5389 45.9246 22.3695C44.5672 20.2011 45.9836 19.7517 43.6507 17.7477C41.3178 15.7437 38.971 14.1306 38.3087 13.0331C37.8662 12.3015 37.4837 11.0798 37.1593 9.36776L36.0352 10.5973C36.0374 11.6348 36.5519 12.7695 37.5795 14.0025C39.1189 15.85 42.2654 16.2829 43.4398 18.1742C44.6139 20.0665 43.8458 22.6031 45.6887 24.1624C47.5315 25.7216 50.2749 26.3664 51.8926 28.3502C52.8187 29.4876 52.1006 31.5726 53.9059 33.6444C55.2513 35.1888 59.1949 36.8041 59.8529 37.593C60.8788 38.8247 61.3756 40.4237 61.3413 42.3906L61.7029 42.173V42.173Z" fill="#FDDCDC"/>
<path fill-rule="evenodd" clip-rule="evenodd" d="M60.3867 42.9778C61.5707 41.2855 61.0269 39.4337 58.7552 37.4233C57.5034 36.3154 53.9345 35.3185 53.3786 34.0577C52.4197 31.8819 52.7457 29.1827 51.407 28.0625C49.2899 26.2934 45.9676 25.3485 44.6105 23.1807C43.2544 21.0132 44.6697 20.5627 42.3373 18.5593C40.0049 16.5559 37.6585 14.9432 36.9964 13.846C36.5549 13.1148 36.1715 11.8934 35.8481 10.182L32.4004 13.2142C32.4035 14.2516 32.9179 15.3859 33.9446 16.6174C35.4844 18.4656 38.6292 18.8982 39.8034 20.789C40.9773 22.6807 40.2103 25.2167 42.0528 26.7755C43.8944 28.3342 46.638 28.979 48.2545 30.962C49.1804 32.0991 48.4634 34.1836 50.2684 36.2549C51.6134 37.7988 55.5562 39.4137 56.2131 40.2022C57.2399 41.4328 57.7356 43.032 57.7025 44.9977L60.3867 42.9778V42.9778Z" fill="#F08484"/>
<path fill-rule="evenodd" clip-rule="evenodd" d="M33.0661 49.2719C33.6148 52.0783 35.1023 54.3746 37.5305 56.1577C41.1718 58.833 43.4509 62.2566 44.4182 61.2257C45.3865 60.1938 43.6797 57.6863 44.4182 56.1577C45.1577 54.6311 46.5104 52.7148 47.4046 50.9934C48.2997 49.2709 49.3714 51.1091 50.8902 47.7337C52.409 44.3583 52.409 42.4526 52.409 40.6819C52.409 38.9123 52.5343 36.5582 50.8902 35.1964C49.7948 34.2889 48.8095 34.2889 47.9361 35.1964C47.0344 33.8993 46.0661 33.2512 45.0324 33.2512C43.9987 33.2512 42.5045 32.5086 40.5481 31.0234C40.3535 29.6424 39.577 28.9519 38.2177 28.9519C36.8574 28.9519 35.4174 28.462 33.8986 27.4831C32.8583 28.0087 31.9119 28.0087 31.0585 27.4831C30.2051 26.9575 29.2198 26.6952 28.1035 26.6952L26.7821 27.4831C27.7883 30.6541 28.7527 32.8491 29.6745 34.0681C31.0585 35.8966 32.1093 40.5392 32.5887 42.2973C32.9067 43.4691 33.0671 45.7933 33.0671 49.2709L33.0661 49.2719Z" fill="#EECE92" stroke="#844C22"/>
<path fill-rule="evenodd" clip-rule="evenodd" d="M21.9667 32.4816C19.9011 32.7651 18.351 33.0843 17.3182 33.4383C15.769 33.9696 12.8064 36.3768 12.2264 37.2949C11.6474 38.213 8.88505 43.008 8.14654 45.4142C7.40897 47.8204 5.14216 52.2953 4.35143 53.6203C3.56071 54.9445 4.35143 56.1326 4.35143 56.7228C4.35143 57.3111 9.53814 57.9013 11.5942 57.3111C12.964 56.9186 13.9341 56.7228 14.5037 56.7228C15.6703 57.5021 16.8265 57.5021 17.9722 56.7228C19.117 55.9426 20.4498 55.2859 21.9667 54.7506C23.5832 55.1171 24.8068 55.1171 25.6355 54.7506C26.4652 54.3842 27.1923 53.684 27.8178 52.6531C28.4159 52.7109 29.3461 52.4631 30.6115 51.9095C31.8759 51.355 32.4986 50.4368 32.4768 49.1542L29.8834 44.2068L21.9667 32.4816Z" fill="#E5C388" stroke="#844C22"/>
<path opacity="0.483" fill-rule="evenodd" clip-rule="evenodd" d="M27.1398 27.7603L34.9141 40.9013C37.5388 45.3983 39.0206 48.1131 39.3604 49.0447C39.6993 49.9764 40.4226 52.3092 41.5304 56.0425L43.3311 56.5912L43.8057 56.1649L45.9207 52.6256C44.53 51.5686 43.6672 50.6534 43.3311 49.8789C42.0705 46.9771 42.0724 43.24 40.8109 40.1732C39.9708 38.1286 38.6845 34.515 36.9541 29.3352C36.2687 29.1828 35.6916 28.9967 35.2217 28.7778C34.7522 28.5595 34.3052 28.2947 33.887 27.987C33.4504 28.2069 32.9188 28.3168 32.2885 28.3168C31.344 28.3168 31.0288 27.7603 29.3857 27.3399C29.2775 27.3119 28.8987 27.2675 28.2485 27.2048L27.1398 27.7603V27.7603Z" fill="#D46917"/>
<path fill-rule="evenodd" clip-rule="evenodd" d="M44.4953 55.9747C44.3577 56.6527 44.6567 58.3539 44.7383 58.8072C44.8503 59.4292 45.1655 61.1545 44.3728 62.0003C39.6636 59.1486 37.2582 56.5601 36.3422 55.4086C35.6426 54.531 33.4679 50.1102 32.9391 49.1679C27.5417 39.5364 26.2374 38.9453 25.5663 37.7542C24.6977 36.215 23.2046 34.0991 21.0868 31.4075L21.9183 29.5143L22.1775 28.9241C23.102 29.7969 23.7979 29.7969 24.263 28.9241C24.7291 28.0504 25.6204 27.9626 26.8345 27.3502" fill="#F6EFE0"/>
<path d="M44.4953 55.9747C44.3577 56.6527 44.6567 58.3539 44.7383 58.8072C44.8503 59.4292 45.1655 61.1545 44.3728 62.0003C39.6636 59.1486 37.2582 56.5601 36.3422 55.4086C35.6426 54.531 33.4679 50.1102 32.9391 49.1679C27.5417 39.5364 26.2374 38.9453 25.5663 37.7542C24.6977 36.215 23.2046 34.0991 21.0868 31.4075L21.9183 29.5143L22.1775 28.9241C23.102 29.7969 23.7979 29.7969 24.263 28.9241C24.7291 28.0504 25.6204 27.9626 26.8345 27.3502" stroke="#844C22" stroke-linecap="round" stroke-linejoin="round"/>
<path fill-rule="evenodd" clip-rule="evenodd" d="M42.1768 32.7351C42.8251 35.9119 43.5105 38.291 44.2339 39.8756C45.3189 42.2519 45.3189 43.0079 45.3189 45.7874C45.3189 47.64 46.0309 49.0692 47.4577 50.0761C47.7549 49.9025 47.9381 49.8012 48.0083 49.7703C48.4611 49.5688 48.4877 49.618 48.4877 49.618C48.4877 49.618 46.8075 47.5744 46.8075 45.7874C46.8075 44.0003 45.9388 41.2113 45.3189 39.2082C44.906 37.8725 44.4019 35.9688 43.8086 33.4989L42.1768 32.7351V32.7351Z" fill="#D17C35"/>
<path fill-rule="evenodd" clip-rule="evenodd" d="M38.1964 29.407C40.4982 34.3418 41.8602 37.778 42.2836 39.7145C42.9186 42.6193 43.2849 44.4961 44.0851 45.7642C44.6195 46.6091 45.5202 48.3971 46.7883 51.1263C46.9583 50.7329 47.1348 50.4377 47.3189 50.2391C47.5031 50.0404 47.7242 49.8851 47.9834 49.7723C46.4713 48.425 45.7148 47.0893 45.7148 45.7642C45.7148 43.7766 45.9891 41.8844 44.9783 40.3578C44.3044 39.3403 43.6171 37.5089 42.9186 34.8655L42.1298 32.8027L40.108 31.3609C39.96 30.1583 39.5575 29.5574 38.8997 29.5574C38.2429 29.5574 38.0075 29.5063 38.1964 29.407V29.407Z" fill="#E7D5AF"/>
<path fill-rule="evenodd" clip-rule="evenodd" d="M44.6003 33.6638C45.3579 36.4452 46.0461 38.7414 46.6651 40.5545C47.5935 43.2741 47.0581 45.2839 47.5935 46.1963C47.9495 46.8048 48.4308 47.6978 49.0364 48.8763C50.6379 45.309 51.4382 43.0301 51.4382 42.0397C51.4382 40.5545 51.9014 37.073 51.0034 36.0054C50.6635 35.6023 50.0446 35.0342 49.3516 35.0342C48.7545 35.0342 48.2741 35.3583 47.9096 36.0054C47.1407 34.7738 46.4667 34.0775 45.8885 33.9165C45.3104 33.7554 44.8813 33.6715 44.6003 33.6638V33.6638Z" fill="#E28F2A"/>
<path fill-rule="evenodd" clip-rule="evenodd" d="M4.47778 55.4111L4.92393 56.4276C7.25434 57.338 8.74086 57.6196 9.3854 57.2705C10.3536 56.7478 14.0813 55.9068 14.5541 55.9068C15.0277 55.9068 15.6448 56.4276 16.7696 56.4276C17.8935 56.4276 20.2021 54.6271 21.8215 53.9732C23.4409 53.3203 24.6085 54.7274 25.6812 53.9732C26.4307 53.4413 27.1313 52.8416 27.7743 52.1813C28.8536 52.3463 29.6595 52.1582 30.192 51.6152C30.7255 51.0723 31.296 50.1995 31.9035 48.9969L30.698 46.7064C29.5617 47.1549 28.5878 47.7653 27.7743 48.5359C26.9608 49.3074 26.0144 50.0433 24.9351 50.7473C22.299 51.5043 20.2771 52.2315 18.8675 52.9278C16.7544 53.9732 13.358 53.9732 12.1904 53.9732C11.0229 53.9732 8.77314 55.4102 7.39578 55.4102H4.47778V55.4111Z" fill="#F0E0C1"/>
<path fill-rule="evenodd" clip-rule="evenodd" d="M9.1081 56.2704C11.3986 56.1528 13.0076 55.8403 13.9331 55.333C14.8596 54.8248 15.6541 54.5711 16.3167 54.5711C15.9323 54.5711 15.9323 54.9183 16.3167 55.6127C16.8938 56.6533 19.2243 54.5711 19.8223 54.5711C20.221 54.5711 21.0373 53.9086 22.2704 52.5816C22.9615 53.4929 23.5747 53.9481 24.1081 53.9481C24.6426 53.9481 25.6792 53.1072 27.2179 51.4262C28.7642 51.5545 29.7543 51.3558 30.189 50.8302C30.6247 50.3037 31.1696 49.6537 31.8246 48.8763L32.4767 49.8301C31.6177 51.0192 30.8554 51.7753 30.189 52.0975C29.5236 52.4205 28.656 52.5015 27.5872 52.3414C26.5933 54.0128 25.7646 54.8489 25.102 54.8489C24.4394 54.8489 23.4959 54.7563 22.2704 54.5711C19.0638 56.2367 17.0799 57.069 16.3167 57.069C15.5545 57.069 14.9166 56.8028 14.404 56.2704C12.9089 56.8028 11.9093 57.069 11.4072 57.069C10.6535 57.069 9.59412 57.1114 9.1081 57.4181C8.62209 57.7257 5.70979 56.9233 5.07854 56.6533C4.65897 56.473 4.49 56.0332 4.57258 55.3321L9.1081 56.2704V56.2704Z" fill="#F6BC7B"/>
<path fill-rule="evenodd" clip-rule="evenodd" d="M10.6453 40.8159V52.11C10.6453 52.4543 10.9206 52.734 11.2595 52.734C11.6107 52.734 11.9069 52.4687 11.9496 52.1138C12.3455 48.8879 12.5439 46.8472 12.5439 45.9928V39.2323L10.6453 40.8159Z" fill="#CB5E1B"/>
<path fill-rule="evenodd" clip-rule="evenodd" d="M19.188 34.0275V51.2556C19.2393 51.9403 19.3968 51.9403 19.6626 51.2556C20.0613 50.2285 20.1373 44.4151 20.1373 42.6415V33.4459L19.188 34.0275Z" fill="#B8490F"/>
<path fill-rule="evenodd" clip-rule="evenodd" d="M26.2762 39.7406C26.241 40.2942 26.2382 40.6336 26.2667 40.7609C26.5353 41.9867 26.485 43.3349 26.1167 44.8057C25.6904 46.5059 25.7446 47.8628 26.2762 48.8764C26.9731 48.5418 27.6223 48.1129 28.2061 47.6015C28.7681 47.1038 29.5598 46.72 30.5793 46.449C30.2483 45.9159 29.9417 45.3675 29.6604 44.8057C29.3661 44.2203 28.2384 42.5326 26.2762 39.7406V39.7406Z" fill="#BC4606"/>
<path opacity="0.531" fill-rule="evenodd" clip-rule="evenodd" d="M16.4184 36.3391C14.5408 37.5687 13.602 38.536 13.602 39.242C13.602 40.2999 15.0107 40.5902 15.0107 41.9481C15.0107 43.306 13.0115 44.335 13.602 45.8153C13.995 46.801 14.4468 48.1425 14.9556 49.8408C17.0012 47.6747 18.0236 46.0082 18.0236 44.8403C18.0236 43.0899 15.7739 44.2328 16.4193 43.0899C17.0629 41.9481 18.8532 40.6278 18.0236 39.242C17.4711 38.3181 17.4711 37.3508 18.0236 36.3391H16.4193H16.4184ZM9.39964 47.912C7.06638 51.1331 5.8988 52.9529 5.8988 53.3715C5.8988 54.0002 8.80825 53.6849 9.39964 52.7436C9.79453 52.1148 9.79453 50.5052 9.39964 47.912ZM22.0968 37.3537C21.4874 37.8455 23.4884 41.8362 22.7926 43.7351C22.0968 45.634 21.0868 47.5416 21.0868 48.4221C21.0868 49.3046 24.8231 48.8426 24.8231 47.5416C24.8231 46.2397 25.8331 42.4332 25.8331 41.2778C25.8331 40.1234 22.7053 36.8609 22.0968 37.3537V37.3537Z" fill="#E1AD4C"/>
<path fill-rule="evenodd" clip-rule="evenodd" d="M35.3862 35.3583C35.0654 35.1403 36.1115 31.9964 36.1115 30.9674C36.1115 30.2807 36.4684 29.7349 37.1833 29.3279C38.2152 30.084 38.3594 30.9712 37.6161 31.9916C36.5017 33.5211 35.708 35.5772 35.3862 35.3583V35.3583Z" fill="#EECE92"/>
<path fill-rule="evenodd" clip-rule="evenodd" d="M12.9629 42.9462C12.7407 42.6212 14.0051 42.2779 14.3972 41.46C14.7902 40.6422 17.5468 40.2063 17.5658 41.5063C17.5848 42.8063 17.0798 42.2914 15.4366 42.9819C13.7935 43.6733 13.184 43.2712 12.9629 42.9462ZM14.9933 39.3654C14.8272 39.1223 15.7755 38.8639 16.0698 38.2505C16.364 37.6371 18.4315 37.3112 18.4457 38.2862C18.46 39.2602 18.0812 38.8745 16.8491 39.3924C15.616 39.9112 15.1594 39.6093 14.9933 39.3654ZM22.687 34.4073C21.003 35.256 20.0557 35.8511 19.8449 36.1934C19.5298 36.7046 18.871 36.8782 18.8767 38.209C18.8814 39.5399 20.6395 39.4078 21.3704 38.2187C22.1013 37.0305 20.2854 41.1215 19.8668 41.8005C19.4491 42.4804 18.3128 42.6318 18.8957 43.0021C19.2849 43.249 19.9493 43.0648 20.892 42.4514C20.1677 43.8884 19.8307 44.8702 19.881 45.3996C19.9569 46.1933 20.9698 44.4593 20.9698 44.4593C20.9698 44.4593 19.7566 46.4653 19.8876 47.15C19.9759 47.6062 20.9964 47.0266 22.948 45.4122L22.9385 43.0185L20.7856 43.7418L22.3519 41.1958L21.3618 40.568L25.5139 38.6903L24.6548 37.3343L23.8261 36.1934L22.687 34.4073V34.4073Z" fill="#EEE2C9"/>
<path opacity="0.294" fill-rule="evenodd" clip-rule="evenodd" d="M26.7821 27.6599C31.5378 38.4063 33.9167 44.4965 33.9167 45.9306C33.9167 48.0831 35.1184 51.0458 35.7136 51.6032C36.3088 52.1616 38.0953 52.9533 38.8718 53.9804C39.3891 54.6652 39.8628 56.2015 40.2928 58.5903L43.8762 61.1132C43.6863 59.5074 43.4301 58.463 43.1035 57.9808C42.6137 57.2575 41.5933 57.1205 40.8699 56.1224C40.1475 55.1252 41.4233 53.775 40.1475 53.0903C38.8718 52.4056 37.1166 50.9975 37.1166 50.2646V45.9306C35.7278 43.6324 34.6609 41.8145 33.9167 40.4778L26.7821 27.6599Z" fill="#E5C586"/>
<path opacity="0.556" fill-rule="evenodd" clip-rule="evenodd" d="M6.00872 52.8276C5.06706 53.5895 4.75286 54.1691 5.06706 54.5655C5.53789 55.1605 13.9872 52.8276 14.7152 52.8276C15.4424 52.8276 16.3954 51.1467 17.3589 51.1467C18.3233 51.1467 19.115 52.6396 20.3785 51.8931C21.6419 51.1467 23.5157 50.732 24.7156 49.8631C25.5149 49.2834 26.204 48.185 26.7821 46.5667L26.2467 44.0544C25.1048 44.8983 24.1441 45.7354 23.3667 46.5667C22.1991 47.8127 19.8867 48.8543 19.2545 49.3587C18.6223 49.8631 17.9911 47.642 18.6223 47.1049C19.2545 46.5667 17.9161 46.5667 17.3598 46.5667C16.8026 46.5667 14.7152 48.0239 14.7152 48.6913C14.7152 49.3587 15.5183 47.2283 14.7152 46.5667C13.9112 45.9051 13.2914 47.5205 11.9529 48.6913C10.6135 49.8631 9.0615 50.9576 7.95847 51.8931C7.22281 52.5161 6.57257 52.8286 6.00872 52.8286V52.8276Z" fill="#DD932F"/>
</svg>
