<svg width="48" height="240" viewBox="0 0 48 240" fill="none" xmlns="http://www.w3.org/2000/svg">
<path d="M0 3C0 1.34314 1.34315 0 3 0H48V240H3C1.34315 240 0 238.657 0 237V3Z" fill="white"/>
<path d="M0 3C0 1.34315 1.34315 0 3 0H48V48H0V3Z" fill="#E8B81A"/>
<path d="M30.3223 26.7113C29.1545 26.7113 28.1244 27.2629 27.4515 28.1077L21.2095 24.9426C21.2913 24.6404 21.35 24.3281 21.35 23.9995C21.35 23.6418 21.2802 23.305 21.1829 22.9773L27.3973 19.8268C28.0666 20.7098 29.1232 21.2869 30.3232 21.2869C32.3558 21.2869 34 19.6566 34 17.643C34 15.6312 32.3558 14 30.3232 14C28.2952 14 26.6491 15.6312 26.6491 17.643C26.6491 17.9725 26.7079 18.2856 26.7905 18.5888L20.5495 21.7539C19.8756 20.9082 18.8437 20.3548 17.6741 20.3548C15.6433 20.3548 14 21.9869 14 23.9995C14 26.0122 15.6433 27.6434 17.6741 27.6434C18.8758 27.6434 19.9316 27.0645 20.6036 26.1806L26.8152 29.3311C26.7179 29.6579 26.6472 29.9974 26.6472 30.3561C26.6472 32.3688 28.2933 34 30.3213 34C32.3539 34 33.9982 32.3688 33.9982 30.3561C33.9991 28.3416 32.3549 26.7113 30.3223 26.7113Z" fill="#F8F8F8"/>
<path d="M35.7861 77.5952C35.7216 77.4926 35.3225 76.6695 33.4024 74.9777C31.3923 73.2061 31.6623 73.4938 34.0834 70.4305C35.5581 68.5649 36.1476 67.4256 35.9631 66.9386C35.7876 66.4743 34.703 66.5968 34.703 66.5968L31.0967 66.6168C31.0967 66.6168 30.8297 66.5826 30.6302 66.6951C30.4367 66.8062 30.3122 67.0625 30.3122 67.0625C30.3122 67.0625 29.7406 68.5065 28.9786 69.7341C27.372 72.3246 26.7284 72.4613 26.4659 72.3004C25.8553 71.9258 26.0084 70.7937 26.0084 69.9905C26.0084 67.4798 26.4089 66.433 25.2268 66.1625C24.8338 66.0727 24.5458 66.0129 23.5422 66.003C22.2551 65.9902 21.1645 66.0072 20.548 66.2935C20.1369 66.4843 19.8204 66.9101 20.0139 66.9343C20.2524 66.9642 20.7925 67.0725 21.079 67.4427C21.4495 67.9198 21.436 68.9936 21.436 68.9936C21.436 68.9936 21.649 71.9486 20.9395 72.316C20.452 72.5681 19.7844 72.054 18.3518 69.7028C17.6182 68.4994 17.0632 67.1679 17.0632 67.1679C17.0632 67.1679 16.9567 66.9201 16.7662 66.7877C16.5352 66.6267 16.2111 66.5755 16.2111 66.5755L12.7819 66.5954C12.7819 66.5954 12.2674 66.6096 12.0783 66.8218C11.9103 67.0112 12.0648 67.4014 12.0648 67.4014C12.0648 67.4014 14.75 73.3642 17.7893 76.3705C20.578 79.1261 23.7432 78.9452 23.7432 78.9452H25.1773C25.1773 78.9452 25.6108 78.8997 25.8313 78.6732C26.0354 78.4653 26.0279 78.0751 26.0279 78.0751C26.0279 78.0751 25.9994 76.248 26.8934 75.9788C27.774 75.7139 28.9051 77.7447 30.1037 78.5265C31.0097 79.1175 31.6983 78.988 31.6983 78.988L34.904 78.9452C34.904 78.9452 36.5811 78.847 35.7861 77.5952Z" fill="#A69895"/>
<path d="M24.0025 110H23.9975C18.4838 110 14 114.485 14 120C14 122.188 14.705 124.215 15.9037 125.861L14.6575 129.576L18.5013 128.347C20.0825 129.395 21.9688 130 24.0025 130C29.5162 130 34 125.514 34 120C34 114.486 29.5162 110 24.0025 110ZM29.8212 124.121C29.58 124.802 28.6225 125.367 27.8587 125.532C27.3363 125.644 26.6537 125.733 24.3562 124.78C21.4175 123.562 19.525 120.576 19.3775 120.382C19.2362 120.189 18.19 118.801 18.19 117.366C18.19 115.931 18.9188 115.233 19.2125 114.932C19.4538 114.686 19.8525 114.574 20.235 114.574C20.3587 114.574 20.47 114.58 20.57 114.585C20.8637 114.597 21.0113 114.615 21.205 115.079C21.4462 115.66 22.0337 117.095 22.1038 117.243C22.175 117.39 22.2463 117.59 22.1462 117.784C22.0525 117.984 21.97 118.073 21.8225 118.243C21.675 118.412 21.535 118.543 21.3875 118.725C21.2525 118.884 21.1 119.054 21.27 119.347C21.44 119.635 22.0275 120.594 22.8925 121.364C24.0087 122.357 24.9137 122.675 25.2375 122.81C25.4787 122.91 25.7662 122.886 25.9425 122.699C26.1663 122.458 26.4425 122.058 26.7238 121.664C26.9237 121.381 27.1763 121.346 27.4412 121.446C27.7113 121.54 29.14 122.246 29.4338 122.392C29.7275 122.54 29.9212 122.61 29.9925 122.734C30.0625 122.858 30.0625 123.439 29.8212 124.121Z" fill="#A69895"/>
<path d="M13.3886 167.59L18.4578 169.565L20.4199 176.154C20.5455 176.576 21.0397 176.732 21.3677 176.452L24.1934 174.047C24.4896 173.795 24.9115 173.782 25.221 174.017L30.3175 177.88C30.6684 178.147 31.1656 177.946 31.2536 177.503L34.987 158.752C35.0831 158.268 34.628 157.865 34.187 158.043L13.3826 166.423C12.8692 166.63 12.8737 167.388 13.3886 167.59ZM20.1037 168.514L30.0109 162.143C30.189 162.029 30.3722 162.28 30.2193 162.428L22.043 170.364C21.7556 170.643 21.5702 171.017 21.5177 171.423L21.2391 173.578C21.2023 173.865 20.8151 173.894 20.7391 173.616L19.6679 169.686C19.5452 169.237 19.724 168.759 20.1037 168.514Z" fill="#A69895"/>
<path d="M16.6667 213.333C15.1963 213.333 14 214.53 14 216C14 217.47 15.1963 218.667 16.6667 218.667C18.137 218.667 19.3333 217.47 19.3333 216C19.3333 214.53 18.137 213.333 16.6667 213.333Z" fill="#A69895"/>
<path d="M31.3334 213.333C29.8631 213.333 28.6667 214.53 28.6667 216C28.6667 217.47 29.8631 218.667 31.3334 218.667C32.8037 218.667 34.0001 217.47 34.0001 216C34.0001 214.53 32.8037 213.333 31.3334 213.333Z" fill="#A69895"/>
<path d="M23.9999 213.333C22.5296 213.333 21.3333 214.53 21.3333 216C21.3333 217.47 22.5296 218.667 23.9999 218.667C25.4703 218.667 26.6666 217.47 26.6666 216C26.6666 214.53 25.4703 213.333 23.9999 213.333Z" fill="#A69895"/>
</svg>
