<svg width="58" height="60" viewBox="0 0 58 60" fill="none" xmlns="http://www.w3.org/2000/svg">
<path d="M38.5995 39.4531C44.0216 41.8905 50.1784 39.8215 52.3512 34.8319C54.5239 29.8423 51.8898 23.8215 46.4677 21.3841C41.0456 18.9467 34.8888 21.0157 32.716 26.0053C30.5433 30.9949 33.1774 37.0157 38.5995 39.4531Z" fill="#FF5151" stroke="#503117"/>
<path fill-rule="evenodd" clip-rule="evenodd" d="M33.5208 33.2481C37.0907 35.5806 41.0272 36.1222 45.3321 34.8738C49.6365 33.6263 51.9758 31.5973 52.3483 28.7904C53.6786 34.3696 51.3496 37.9888 45.3628 39.6497C39.1755 40.2421 35.2286 38.1081 33.5211 33.2472L33.5208 33.2481Z" fill="#DF3C3C"/>
<path fill-rule="evenodd" clip-rule="evenodd" d="M44.1329 19.9621C43.471 19.0902 42.5516 18.6767 41.3772 18.7227C40.2019 18.7684 39.4351 19.2029 39.0771 20.0255C40.631 19.8524 41.6422 20.0892 42.1088 20.735C42.5755 21.3809 42.966 21.7745 43.2823 21.9167C42.7815 22.2008 42.5373 22.762 42.55 23.5992C42.5635 24.4368 42.8256 24.9704 43.337 25.2004C44.3315 24.8226 44.9524 24.3521 45.1978 23.7883C45.4428 23.2254 45.3939 22.3815 45.0531 21.2574C46.991 21.1581 47.7824 21.514 47.429 22.3259C47.0757 23.1378 47.6834 23.678 49.2499 23.9466C49.2648 23.0616 49.1186 22.1802 48.8186 21.3463C48.5255 20.5467 47.4647 20.0697 45.6371 19.9155L46.5602 17.7946L45.3192 17.2365L44.1329 19.9621Z" fill="#92C28F" stroke="#503117"/>
<mask id="mask0" mask-type="alpha" maskUnits="userSpaceOnUse" x="0" y="0" width="35" height="32">
<path d="M0.705309 5.28637L6.73978 29.2212C11.9094 31.1988 17.4826 31.6929 23.4583 30.7046C29.4341 29.7154 33.2776 27.0098 34.9889 22.587V0L0.704346 5.28637H0.705309Z" fill="white"/>
</mask>
<g mask="url(#mask0)">
<path d="M20.8525 38.3466C28.1924 38.3466 34.1426 32.636 34.1426 25.5917C34.1426 18.5473 28.1924 12.8367 20.8525 12.8367C13.5126 12.8367 7.56238 18.5473 7.56238 25.5917C7.56238 32.636 13.5126 38.3466 20.8525 38.3466Z" fill="#E72B2B" stroke="#503117"/>
<path fill-rule="evenodd" clip-rule="evenodd" d="M10.3871 32.5777C16.0797 34.4684 21.0577 33.5504 25.3201 29.8234C29.5836 26.0974 30.8384 21.543 29.0857 16.1611C30.5745 17.5811 31.5742 18.7555 32.0836 19.6853C34.8765 24.7846 33.8364 30.4228 28.5695 35.2111C21.8493 39.1603 15.7888 38.2831 10.3871 32.5777Z" fill="#C31616"/>
<path fill-rule="evenodd" clip-rule="evenodd" d="M18.2909 12.674C17.1092 12.0015 15.864 12.0015 14.5542 12.674C13.2445 13.3465 12.5896 14.2587 12.5896 15.4107C14.2672 14.3903 15.5298 14.134 16.3773 14.6457C17.2248 15.1554 17.8623 15.4107 18.2909 15.4107C17.8623 16.0062 17.8623 16.7908 18.2909 17.7645C18.7185 18.7391 19.2799 19.2264 19.9733 19.2264C20.9142 18.2596 21.3851 17.3824 21.3851 16.5939C21.3851 15.8045 20.9142 14.8425 19.9733 13.7061C22.1209 12.5707 23.1957 12.5707 23.1957 13.7061C23.1957 14.8425 24.3821 15.0277 26.7561 14.2607C25.7882 12.9683 24.9398 11.9323 24.2117 11.1516C23.4836 10.371 22.0708 10.5961 19.9733 11.828V8.85931H18.2909V12.674Z" fill="#92C28F" stroke="#503117"/>
</g>
<mask id="mask1" mask-type="alpha" maskUnits="userSpaceOnUse" x="9" y="32" width="40" height="28">
<path d="M12.6075 59.0477L9.71448 39.6205C14.2427 40.9518 19.1736 40.7998 24.5069 39.1653C29.8403 37.5309 33.7397 35.3906 36.2061 32.7465L48.1797 50.9281L12.6075 59.0467V59.0477Z" fill="white"/>
</mask>
<g mask="url(#mask1)">
<path fill-rule="evenodd" clip-rule="evenodd" d="M22.3436 48.016C29.4885 48.016 35.7271 42.254 35.7271 35.4219C35.7271 28.5897 29.4885 23.2751 22.3436 23.2751C15.1978 23.2761 9.40698 28.8139 9.40698 35.646C9.40698 42.4781 15.1978 48.016 22.3436 48.016Z" fill="#E72B2B" stroke="#503117"/>
<path fill-rule="evenodd" clip-rule="evenodd" d="M13.2097 43.6789C18.05 44.673 22.5446 43.3631 26.6943 39.7492C30.8441 36.1353 32.9542 32.191 33.0245 27.9143C36.7081 34.9121 35.6709 40.6449 29.9119 45.1155C23.8996 48.7538 18.3322 48.2742 13.2097 43.6789Z" fill="#C31616"/>
</g>
<path fill-rule="evenodd" clip-rule="evenodd" d="M10.2828 39.9743C10.9473 41.6418 18.5824 42.0434 25.2813 39.9743C31.9803 37.9051 35.482 35.0719 35.482 33.2942C35.482 31.5174 29.6815 31.3381 21.7826 33.2942C13.8836 35.2502 9.61828 38.3067 10.2828 39.9743Z" fill="#FF5C5C" stroke="#52341B"/>
<path d="M7.94531 29.1033C12.3002 31.2816 17.285 31.7709 22.8976 30.5711C28.5103 29.3704 32.322 26.964 34.3348 23.3501" stroke="#52341B"/>
<path fill-rule="evenodd" clip-rule="evenodd" d="M18.9233 36.0203C15.7154 37.2132 14.111 38.0202 14.111 38.4412C14.111 39.0728 15.7481 39.9188 17.2813 39.9188C18.8155 39.9188 20.6327 38.4519 22.0638 38.4519C23.0173 38.4519 23.0173 37.9627 22.0638 36.9851L19.9413 38.2141C19.8188 38.2851 19.6825 38.3281 19.5419 38.3399C19.4013 38.3516 19.2598 38.332 19.1275 38.2824L18.5285 38.0562C18.4551 38.0284 18.3922 37.9782 18.3483 37.9125C18.3044 37.8468 18.2818 37.769 18.2836 37.6898C18.2854 37.6105 18.3115 37.5338 18.3583 37.4702C18.4051 37.4067 18.4703 37.3594 18.5448 37.335L20.1387 36.8175C20.169 36.7266 20.1774 36.6296 20.1633 36.5348C20.1493 36.4399 20.113 36.3497 20.0577 36.2718C20.0024 36.1939 19.9295 36.1305 19.8451 36.0867C19.7607 36.043 19.6672 36.0202 19.5724 36.0203H18.9233ZM22.5569 35.0456H18.9262C22.1043 33.7465 24.0756 33.0964 24.8422 33.0964H27.5937L24.8422 35.0456L23.2599 34.071L22.5569 35.0456ZM26.6306 35.4062L28.7098 33.0964H31.5181C32.4089 34.6363 32.6314 35.4062 32.1865 35.4062C31.7406 35.4062 30.582 35.9364 28.7098 36.9949V35.4062H26.6306Z" fill="#C31616"/>
<path fill-rule="evenodd" clip-rule="evenodd" d="M23.7411 36.9365V38.9442C25.1 38.2746 26.142 37.9403 26.8681 37.9403C27.5933 37.9403 28.4764 37.6051 29.5194 36.9365L26.6302 36.0203L25.5632 36.9365H23.7411Z" fill="#C31616"/>
</svg>
