<svg width="24" height="13" viewBox="0 0 24 13" fill="none" xmlns="http://www.w3.org/2000/svg">
<path d="M23.7861 11.5952C23.7216 11.4926 23.3225 10.6695 21.4024 8.97768C19.3923 7.20609 19.6623 7.49376 22.0834 4.43051C23.5581 2.56493 24.1476 1.42565 23.9631 0.938606C23.7876 0.474348 22.703 0.596821 22.703 0.596821L19.0967 0.616758C19.0967 0.616758 18.8297 0.58258 18.6302 0.695084C18.4367 0.806164 18.3122 1.0625 18.3122 1.0625C18.3122 1.0625 17.7406 2.50655 16.9786 3.73412C15.372 6.32457 14.7284 6.46128 14.4659 6.30036C13.8553 5.92582 14.0084 4.79366 14.0084 3.99046C14.0084 1.47977 14.4089 0.433048 13.2268 0.162469C12.8338 0.07275 12.5458 0.0129376 11.5422 0.00296885C10.2551 -0.00984809 9.1645 0.00724116 8.54796 0.293486C8.13693 0.484316 7.82041 0.910124 8.01392 0.934334C8.25244 0.96424 8.79248 1.07247 9.079 1.44274C9.44952 1.91981 9.43602 2.99359 9.43602 2.99359C9.43602 2.99359 9.64904 5.94861 8.93949 6.31603C8.45195 6.56809 7.7844 6.05399 6.3518 3.70279C5.61824 2.49942 5.0632 1.16789 5.0632 1.16789C5.0632 1.16789 4.9567 0.920093 4.76618 0.787651C4.53517 0.626727 4.21114 0.575459 4.21114 0.575459L0.781892 0.595397C0.781892 0.595397 0.267354 0.609638 0.0783406 0.82183C-0.0896717 1.01124 0.0648396 1.40144 0.0648396 1.40144C0.0648396 1.40144 2.75004 7.36417 5.78926 10.3705C8.57796 13.1261 11.7432 12.9452 11.7432 12.9452H13.1773C13.1773 12.9452 13.6108 12.8997 13.8313 12.6732C14.0354 12.4653 14.0279 12.0751 14.0279 12.0751C14.0279 12.0751 13.9994 10.248 14.8934 9.97882C15.774 9.71394 16.9051 11.7447 18.1037 12.5265C19.0097 13.1175 19.6983 12.988 19.6983 12.988L22.904 12.9452C22.904 12.9452 24.5811 12.847 23.7861 11.5952Z" fill="#A69895"/>
</svg>
