<svg width="18" height="16" viewBox="0 0 18 16" fill="none" xmlns="http://www.w3.org/2000/svg">
<path d="M1 7C0.447715 7 -8.5204e-08 7.44772 0 8C8.5204e-08 8.55228 0.447715 9 1 9L1 7ZM17.7071 8.7071C18.0976 8.31658 18.0976 7.68341 17.7071 7.29289L11.3431 0.928931C10.9526 0.538406 10.3195 0.538406 9.92893 0.928931C9.53841 1.31946 9.53841 1.95262 9.92893 2.34314L15.5858 8L9.92893 13.6569C9.53841 14.0474 9.53841 14.6805 9.92893 15.0711C10.3195 15.4616 10.9526 15.4616 11.3431 15.0711L17.7071 8.7071ZM1 9L17 9L17 7L1 7L1 9Z" fill="#66A80F"/>
</svg>
