<svg width="138" height="138" viewBox="0 0 138 138" fill="none" xmlns="http://www.w3.org/2000/svg">
<path d="M0 0H138V134C138 136.209 136.209 138 134 138H4C1.79086 138 0 136.209 0 134V0Z" fill="#2B3145"/>
<path d="M0 0H138V134C138 136.209 136.209 138 134 138H4C1.79086 138 0 136.209 0 134V0Z" fill="#2B3145"/>
<path d="M0 0H138V134C138 136.209 136.209 138 134 138H4C1.79086 138 0 136.209 0 134V0Z" fill="#2B3145"/>
<path d="M52.6343 62.7965L50.1375 56.8119L47.6406 62.7965H44.1646L48.439 53.497L44.4224 44.8177H47.8714L50.1375 50.2609L52.4036 44.8177H55.8526L51.836 53.497L56.1083 62.7965H52.6343Z" fill="white"/>
<path d="M57.2601 57.0151V50.5949C57.2601 46.7946 59.3723 44.5065 62.9502 44.5065C66.5281 44.5065 68.6112 46.7884 68.6112 50.5949V57.0255C68.6112 60.8279 66.5011 63.1139 62.9502 63.1139C59.3993 63.1139 57.2601 60.832 57.2601 57.0255V57.0151ZM65.3431 57.0255V50.5949C65.3431 48.6429 64.5552 47.558 62.9502 47.558C61.3452 47.558 60.5282 48.6367 60.5282 50.5887V57.0193C60.5282 58.9713 61.3598 60.0521 62.9502 60.0521C64.5406 60.0521 65.3431 58.9713 65.3431 57.0193" fill="white"/>
<path d="M81.4759 44.8156V62.9085H78.3096V56.4489C77.5391 56.6705 76.7414 56.7836 75.9396 56.7849C72.6735 56.7849 70.6652 54.6006 70.6652 50.8521V44.8156H73.8294V51.0036C73.8294 52.9328 74.7067 53.831 76.4032 53.831C77.0508 53.8285 77.6941 53.7249 78.3096 53.524V44.8115L81.4759 44.8156Z" fill="white"/>
<path d="M95.0287 44.8156L90.7501 58.683C89.642 62.2302 88.3032 63.0765 85.2928 63.0765H84.6234V60.2512H85.3947C86.7855 60.2512 87.351 59.7368 87.9414 57.735L83.4446 44.8156H86.8001L89.3739 52.8539L91.7169 44.8156H95.0287Z" fill="white"/>
<path d="M60.4846 89.9566V95.9392H57.3661V92.9085H49.2103V95.9392H46.0919V89.9566H47.1999C48.6552 88.3884 49.1812 85.5879 49.2789 82.968L49.597 74.94H58.863V89.967L60.4846 89.9566ZM55.7237 77.9085H52.5575L52.3246 83.8599C52.2477 86.2227 51.8111 88.3282 50.9088 89.9483H55.7237V77.9085Z" fill="white"/>
<path d="M62.0458 87.1292V80.7089C62.0458 76.9066 64.1581 74.6227 67.736 74.6227C71.3139 74.6227 73.397 76.9045 73.397 80.7089V87.1292C73.397 90.9295 71.2869 93.2176 67.736 93.2176C64.1851 93.2176 62.0458 90.9357 62.0458 87.1292ZM70.1289 87.1292V80.7089C70.1289 78.7569 69.3285 77.6782 67.736 77.6782C66.1435 77.6782 65.314 78.7569 65.314 80.7089V87.1292C65.314 89.0812 66.1456 90.1599 67.736 90.1599C69.3264 90.1599 70.1289 89.0812 70.1289 87.1292Z" fill="white"/>
<path d="M91.1265 74.94V92.9188H88.008V87.2848C88.0849 85.1793 88.166 83.1235 88.2679 81.0948L88.139 81.0429C87.6234 82.5323 87.0288 84.1545 86.4654 85.7684L85.2554 88.9526H82.1162L80.9062 85.7684C80.3387 84.1504 79.7711 82.5323 79.2306 81.0429L79.1017 81.0948C79.2056 83.1235 79.2826 85.1793 79.3595 87.2848V92.9085H76.2743V74.94H79.4655L82.3989 81.9785C82.7877 82.9265 83.4052 84.5715 83.6359 85.3182H83.7357C83.9686 84.5715 84.613 82.9265 84.9997 81.9785L87.9103 74.94H91.1265Z" fill="white"/>
<path d="M32.9548 32V106H105.045V32H32.9548ZM84.7627 102.332V93.4935H82.9249V102.332H36.6305V69.947H51.3911V65.124H49.5512V68.1132H36.6305V35.6675H49.2332V42.9279H51.071V35.6675H101.37V67.9452H61.5386V69.7789H82.9249V75.3964H84.7627V69.7789H101.37V102.332H84.7627Z" fill="white"/>
<path d="M32.9548 32V106H105.045V32H32.9548ZM84.7627 102.332V93.4935H82.9249V102.332H36.6305V69.947H51.3911V65.124H49.5512V68.1132H36.6305V35.6675H49.2332V42.9279H51.071V35.6675H101.37V67.9452H61.5386V69.7789H82.9249V75.3964H84.7627V69.7789H101.37V102.332H84.7627Z" fill="white"/>
</svg>
