<svg width="24" height="24" viewBox="0 0 24 24" fill="none" xmlns="http://www.w3.org/2000/svg">
<g opacity="0.8">
<path d="M17.377 0H6.623C4.86704 0.00185298 3.18353 0.700226 1.94188 1.94188C0.700226 3.18353 0.00185298 4.86704 0 6.623L0 17.377C0.00185298 19.133 0.700226 20.8165 1.94188 22.0581C3.18353 23.2998 4.86704 23.9981 6.623 24H17.377C19.133 23.9981 20.8165 23.2998 22.0581 22.0581C23.2998 20.8165 23.9981 19.133 24 17.377V6.623C23.9981 4.86704 23.2998 3.18353 22.0581 1.94188C20.8165 0.700226 19.133 0.00185298 17.377 0V0ZM21.871 17.377C21.8697 18.5685 21.3958 19.7108 20.5533 20.5533C19.7108 21.3958 18.5685 21.8697 17.377 21.871H6.623C5.43152 21.8697 4.28923 21.3958 3.44672 20.5533C2.60422 19.7108 2.13032 18.5685 2.129 17.377V6.623C2.13059 5.4317 2.6046 4.28966 3.44708 3.44737C4.28955 2.60508 5.4317 2.13132 6.623 2.13H17.377C18.5685 2.13132 19.7108 2.60522 20.5533 3.44772C21.3958 4.29023 21.8697 5.43252 21.871 6.624V17.378V17.377Z" fill="white"/>
<path d="M12 5.81577C10.3604 5.81762 8.7886 6.46974 7.62928 7.62906C6.46995 8.78839 5.81783 10.3602 5.81598 11.9998C5.81783 13.6393 6.46995 15.2111 7.62928 16.3705C8.7886 17.5298 10.3604 18.1819 12 18.1838C13.6395 18.1819 15.2114 17.5298 16.3707 16.3705C17.53 15.2111 18.1821 13.6393 18.184 11.9998C18.1821 10.3602 17.53 8.78839 16.3707 7.62906C15.2114 6.46974 13.6395 5.81762 12 5.81577ZM12 16.0548C10.9249 16.0534 9.8943 15.6258 9.13412 14.8656C8.37395 14.1054 7.9463 13.0748 7.94498 11.9998C7.9463 10.9247 8.37395 9.89408 9.13412 9.13391C9.8943 8.37374 10.9249 7.94609 12 7.94477C13.075 7.94609 14.1057 8.37374 14.8658 9.13391C15.626 9.89408 16.0537 10.9247 16.055 11.9998C16.0537 13.0748 15.626 14.1054 14.8658 14.8656C14.1057 15.6258 13.075 16.0534 12 16.0548ZM18.443 4.00977C18.0293 4.01161 17.633 4.17677 17.3405 4.4693C17.048 4.76183 16.8828 5.15806 16.881 5.57177C16.881 5.98177 17.049 6.38577 17.341 6.67677C17.63 6.96677 18.033 7.13377 18.443 7.13377C18.855 7.13377 19.257 6.96577 19.548 6.67677C19.838 6.38577 20.005 5.98277 20.005 5.57177C20.005 5.16077 19.839 4.75677 19.548 4.46777C19.2545 4.17545 18.8572 4.01116 18.443 4.01077V4.00977Z" fill="white"/>
</g>
</svg>
