<svg width="24" height="24" viewBox="0 0 24 24" fill="none" xmlns="http://www.w3.org/2000/svg">
<path opacity="0.8" fill-rule="evenodd" clip-rule="evenodd" d="M15.6838 2H8.31616C4.91801 2 3.64657 2.45496 3.05077 3.05077C2.45496 3.64657 2 4.91801 2 8.31616V15.6838C2 19.082 2.45496 20.3534 3.05077 20.9492C3.64657 21.545 4.91801 22 8.31616 22H15.6838C19.082 22 20.3534 21.545 20.9492 20.9492C21.545 20.3534 22 19.082 22 15.6838V8.31616C22 4.92148 21.5418 3.64865 20.9441 3.05198C20.3455 2.45437 19.0718 2 15.6838 2ZM15.6838 0H8.31616C1.5921 0 0 1.5921 0 8.31616V15.6838C0 22.4079 1.5921 24 8.31616 24H15.6838C22.4079 24 24 22.4079 24 15.6838V8.31616C24 1.5921 22.391 0 15.6838 0Z" fill="white"/>
<path opacity="0.8" d="M15.6987 5.00291L13.7799 5C11.6242 5 10.231 6.35233 10.231 8.44542V10.034H8.30172C8.135 10.034 8 10.1619 8 10.3196V12.6213C8 12.779 8.13516 12.9067 8.30172 12.9067H10.231V18.7145C10.231 18.8723 10.366 19 10.5327 19H13.0499C13.2166 19 13.3517 18.8721 13.3517 18.7145V12.9067H15.6075C15.7742 12.9067 15.9092 12.779 15.9092 12.6213L15.9101 10.3196C15.9101 10.2439 15.8782 10.1713 15.8217 10.1177C15.7652 10.0641 15.6883 10.034 15.6082 10.034H13.3517V8.68734C13.3517 8.04008 13.5147 7.71151 14.4058 7.71151L15.6984 7.71107C15.865 7.71107 16 7.58319 16 7.4256V5.28838C16 5.13094 15.8652 5.0032 15.6987 5.00291Z" fill="white"/>
</svg>
