<svg width="24" height="24" viewBox="0 0 24 24" fill="none" xmlns="http://www.w3.org/2000/svg">
<path opacity="0.8" d="M15.7 24H8.3C4.7 24 2.8 23.5 1.6 22.4C0.4 21.3 0 19.3 0 15.7V8.3C0 4.7 0.5 2.8 1.6 1.6C2.8 0.5 4.7 0 8.3 0H15.7C19.3 0 21.2 0.5 22.4 1.6C23.5 2.8 24 4.7 24 8.3V15.7C24 19.3 23.5 21.2 22.4 22.4C21.3 23.6 19.3 24 15.7 24ZM8.3 2C5.4 2 3.8 2.3 3.1 3.1C2.3 3.8 2 5.4 2 8.3V15.7C2 18.6 2.3 20.2 3.1 21C3.8 21.7 5.4 22 8.3 22H15.7C18.6 22 20.2 21.7 21 20.9C21.8 20.1 22.1 18.5 22.1 15.6V8.3C22.1 5.4 21.8 3.8 21 3C20.2 2.3 18.6 2 15.7 2H8.3Z" fill="white"/>
<path opacity="0.8" d="M18.4 16.3H16.9C16.3 16.3 16.1 15.8 15.1 14.8C14.2 13.9 13.8 13.8 13.6 13.8C13.3 13.8 13.2 13.9 13.2 14.3V15.7C13.2 16.1 13.1 16.3 12.1 16.3C10.5 16.3 8.7 15.3 7.4 13.5C5.5 10.8 5 8.8 5 8.4C5 8.2 5.1 8 5.5 8H7C7.4 8 7.5 8.2 7.7 8.6C8.5 10.8 9.7 12.7 10.2 12.7C10.4 12.7 10.5 12.6 10.5 12.1V9.9C10.4 8.9 9.9 8.8 9.9 8.4C9.9 8.2 10 8 10.3 8H12.7C13 8 13.1 8.2 13.1 8.6V11.6C13.1 11.9 13.2 12 13.3 12C13.5 12 13.7 11.9 14 11.5C15.1 10.3 15.9 8.4 15.9 8.4C16.1 8.2 16.3 8 16.7 8H18.2C18.7 8 18.8 8.2 18.7 8.6C18.5 9.5 16.6 12.1 16.6 12.1C16.4 12.4 16.4 12.5 16.6 12.8L17.7 13.9C18.4 14.6 18.9 15.3 19 15.7C19.1 16.1 18.8 16.3 18.4 16.3Z" fill="white"/>
</svg>
