<svg width="56" height="56" viewBox="0 0 56 56" fill="none" xmlns="http://www.w3.org/2000/svg">
<rect width="56" height="56" fill="#66A80F"/>
<path d="M38.625 46.75H17.375C16.2151 46.7487 15.1031 46.2873 14.2829 45.4671C13.4627 44.6469 13.0013 43.5349 13 42.375V13.625C13.0013 12.4651 13.4627 11.3531 14.2829 10.5329C15.1031 9.71268 16.2151 9.25132 17.375 9.25H38.625C39.7849 9.25132 40.8969 9.71268 41.7171 10.5329C42.5373 11.3531 42.9987 12.4651 43 13.625V42.375C42.9987 43.5349 42.5373 44.6469 41.7171 45.4671C40.8969 46.2873 39.7849 46.7487 38.625 46.75ZM17.375 10.5C16.5465 10.501 15.7522 10.8306 15.1664 11.4164C14.5806 12.0022 14.251 12.7965 14.25 13.625V42.375C14.251 43.2035 14.5806 43.9978 15.1664 44.5836C15.7522 45.1694 16.5465 45.499 17.375 45.5H38.625C39.4535 45.499 40.2478 45.1694 40.8336 44.5836C41.4194 43.9978 41.749 43.2035 41.75 42.375V13.625C41.749 12.7965 41.4194 12.0022 40.8336 11.4164C40.2478 10.8306 39.4535 10.501 38.625 10.5H17.375Z" fill="white"/>
<path d="M29.875 44.25H26.125C25.6277 44.25 25.1508 44.0525 24.7992 43.7008C24.4475 43.3492 24.25 42.8723 24.25 42.375V39.875C24.25 39.3777 24.4475 38.9008 24.7992 38.5492C25.1508 38.1975 25.6277 38 26.125 38H29.875C30.3723 38 30.8492 38.1975 31.2008 38.5492C31.5525 38.9008 31.75 39.3777 31.75 39.875V42.375C31.75 42.8723 31.5525 43.3492 31.2008 43.7008C30.8492 44.0525 30.3723 44.25 29.875 44.25ZM26.125 39.25C25.9592 39.25 25.8003 39.3158 25.6831 39.4331C25.5658 39.5503 25.5 39.7092 25.5 39.875V42.375C25.5 42.5408 25.5658 42.6997 25.6831 42.8169C25.8003 42.9342 25.9592 43 26.125 43H29.875C30.0408 43 30.1997 42.9342 30.3169 42.8169C30.4342 42.6997 30.5 42.5408 30.5 42.375V39.875C30.5 39.7092 30.4342 39.5503 30.3169 39.4331C30.1997 39.3158 30.0408 39.25 29.875 39.25H26.125Z" fill="white"/>
<path d="M21.125 44.25H17.375C16.8777 44.25 16.4008 44.0525 16.0492 43.7008C15.6975 43.3492 15.5 42.8723 15.5 42.375V39.875C15.5 39.3777 15.6975 38.9008 16.0492 38.5492C16.4008 38.1975 16.8777 38 17.375 38H21.125C21.6223 38 22.0992 38.1975 22.4508 38.5492C22.8025 38.9008 23 39.3777 23 39.875V42.375C23 42.8723 22.8025 43.3492 22.4508 43.7008C22.0992 44.0525 21.6223 44.25 21.125 44.25ZM17.375 39.25C17.2092 39.25 17.0503 39.3158 16.9331 39.4331C16.8158 39.5503 16.75 39.7092 16.75 39.875V42.375C16.75 42.5408 16.8158 42.6997 16.9331 42.8169C17.0503 42.9342 17.2092 43 17.375 43H21.125C21.2908 43 21.4497 42.9342 21.5669 42.8169C21.6842 42.6997 21.75 42.5408 21.75 42.375V39.875C21.75 39.7092 21.6842 39.5503 21.5669 39.4331C21.4497 39.3158 21.2908 39.25 21.125 39.25H17.375Z" fill="white"/>
<path d="M38.625 44.25H34.875C34.3777 44.25 33.9008 44.0525 33.5492 43.7008C33.1975 43.3492 33 42.8723 33 42.375V32.375C33 31.8777 33.1975 31.4008 33.5492 31.0492C33.9008 30.6975 34.3777 30.5 34.875 30.5H38.625C39.1223 30.5 39.5992 30.6975 39.9508 31.0492C40.3025 31.4008 40.5 31.8777 40.5 32.375V42.375C40.5 42.8723 40.3025 43.3492 39.9508 43.7008C39.5992 44.0525 39.1223 44.25 38.625 44.25ZM34.875 31.75C34.7092 31.75 34.5503 31.8158 34.4331 31.9331C34.3158 32.0503 34.25 32.2092 34.25 32.375V42.375C34.25 42.5408 34.3158 42.6997 34.4331 42.8169C34.5503 42.9342 34.7092 43 34.875 43H38.625C38.7908 43 38.9497 42.9342 39.0669 42.8169C39.1842 42.6997 39.25 42.5408 39.25 42.375V32.375C39.25 32.2092 39.1842 32.0503 39.0669 31.9331C38.9497 31.8158 38.7908 31.75 38.625 31.75H34.875Z" fill="white"/>
<path d="M29.875 36.75H26.125C25.6277 36.75 25.1508 36.5525 24.7992 36.2008C24.4475 35.8492 24.25 35.3723 24.25 34.875V32.375C24.25 31.8777 24.4475 31.4008 24.7992 31.0492C25.1508 30.6975 25.6277 30.5 26.125 30.5H29.875C30.3723 30.5 30.8492 30.6975 31.2008 31.0492C31.5525 31.4008 31.75 31.8777 31.75 32.375V34.875C31.75 35.3723 31.5525 35.8492 31.2008 36.2008C30.8492 36.5525 30.3723 36.75 29.875 36.75ZM26.125 31.75C25.9592 31.75 25.8003 31.8158 25.6831 31.9331C25.5658 32.0503 25.5 32.2092 25.5 32.375V34.875C25.5 35.0408 25.5658 35.1997 25.6831 35.3169C25.8003 35.4342 25.9592 35.5 26.125 35.5H29.875C30.0408 35.5 30.1997 35.4342 30.3169 35.3169C30.4342 35.1997 30.5 35.0408 30.5 34.875V32.375C30.5 32.2092 30.4342 32.0503 30.3169 31.9331C30.1997 31.8158 30.0408 31.75 29.875 31.75H26.125Z" fill="white"/>
<path d="M21.125 36.75H17.375C16.8777 36.75 16.4008 36.5525 16.0492 36.2008C15.6975 35.8492 15.5 35.3723 15.5 34.875V32.375C15.5 31.8777 15.6975 31.4008 16.0492 31.0492C16.4008 30.6975 16.8777 30.5 17.375 30.5H21.125C21.6223 30.5 22.0992 30.6975 22.4508 31.0492C22.8025 31.4008 23 31.8777 23 32.375V34.875C23 35.3723 22.8025 35.8492 22.4508 36.2008C22.0992 36.5525 21.6223 36.75 21.125 36.75ZM17.375 31.75C17.2092 31.75 17.0503 31.8158 16.9331 31.9331C16.8158 32.0503 16.75 32.2092 16.75 32.375V34.875C16.75 35.0408 16.8158 35.1997 16.9331 35.3169C17.0503 35.4342 17.2092 35.5 17.375 35.5H21.125C21.2908 35.5 21.4497 35.4342 21.5669 35.3169C21.6842 35.1997 21.75 35.0408 21.75 34.875V32.375C21.75 32.2092 21.6842 32.0503 21.5669 31.9331C21.4497 31.8158 21.2908 31.75 21.125 31.75H17.375Z" fill="white"/>
<path d="M29.875 29.25H26.125C25.6277 29.25 25.1508 29.0525 24.7992 28.7008C24.4475 28.3492 24.25 27.8723 24.25 27.375V24.875C24.25 24.3777 24.4475 23.9008 24.7992 23.5492C25.1508 23.1975 25.6277 23 26.125 23H29.875C30.3723 23 30.8492 23.1975 31.2008 23.5492C31.5525 23.9008 31.75 24.3777 31.75 24.875V27.375C31.75 27.8723 31.5525 28.3492 31.2008 28.7008C30.8492 29.0525 30.3723 29.25 29.875 29.25ZM26.125 24.25C25.9592 24.25 25.8003 24.3158 25.6831 24.4331C25.5658 24.5503 25.5 24.7092 25.5 24.875V27.375C25.5 27.5408 25.5658 27.6997 25.6831 27.8169C25.8003 27.9342 25.9592 28 26.125 28H29.875C30.0408 28 30.1997 27.9342 30.3169 27.8169C30.4342 27.6997 30.5 27.5408 30.5 27.375V24.875C30.5 24.7092 30.4342 24.5503 30.3169 24.4331C30.1997 24.3158 30.0408 24.25 29.875 24.25H26.125Z" fill="white"/>
<path d="M21.125 29.25H17.375C16.8777 29.25 16.4008 29.0525 16.0492 28.7008C15.6975 28.3492 15.5 27.8723 15.5 27.375V24.875C15.5 24.3777 15.6975 23.9008 16.0492 23.5492C16.4008 23.1975 16.8777 23 17.375 23H21.125C21.6223 23 22.0992 23.1975 22.4508 23.5492C22.8025 23.9008 23 24.3777 23 24.875V27.375C23 27.8723 22.8025 28.3492 22.4508 28.7008C22.0992 29.0525 21.6223 29.25 21.125 29.25ZM17.375 24.25C17.2092 24.25 17.0503 24.3158 16.9331 24.4331C16.8158 24.5503 16.75 24.7092 16.75 24.875V27.375C16.75 27.5408 16.8158 27.6997 16.9331 27.8169C17.0503 27.9342 17.2092 28 17.375 28H21.125C21.2908 28 21.4497 27.9342 21.5669 27.8169C21.6842 27.6997 21.75 27.5408 21.75 27.375V24.875C21.75 24.7092 21.6842 24.5503 21.5669 24.4331C21.4497 24.3158 21.2908 24.25 21.125 24.25H17.375Z" fill="white"/>
<path d="M38.625 29.25H34.875C34.3777 29.25 33.9008 29.0525 33.5492 28.7008C33.1975 28.3492 33 27.8723 33 27.375V24.875C33 24.3777 33.1975 23.9008 33.5492 23.5492C33.9008 23.1975 34.3777 23 34.875 23H38.625C39.1223 23 39.5992 23.1975 39.9508 23.5492C40.3025 23.9008 40.5 24.3777 40.5 24.875V27.375C40.5 27.8723 40.3025 28.3492 39.9508 28.7008C39.5992 29.0525 39.1223 29.25 38.625 29.25ZM34.875 24.25C34.7092 24.25 34.5503 24.3158 34.4331 24.4331C34.3158 24.5503 34.25 24.7092 34.25 24.875V27.375C34.25 27.5408 34.3158 27.6997 34.4331 27.8169C34.5503 27.9342 34.7092 28 34.875 28H38.625C38.7908 28 38.9497 27.9342 39.0669 27.8169C39.1842 27.6997 39.25 27.5408 39.25 27.375V24.875C39.25 24.7092 39.1842 24.5503 39.0669 24.4331C38.9497 24.3158 38.7908 24.25 38.625 24.25H34.875Z" fill="white"/>
<path d="M38.625 20.5H17.375C16.8777 20.5 16.4008 20.3025 16.0492 19.9508C15.6975 19.5992 15.5 19.1223 15.5 18.625V13.625C15.5 13.1277 15.6975 12.6508 16.0492 12.2992C16.4008 11.9475 16.8777 11.75 17.375 11.75H38.625C39.1223 11.75 39.5992 11.9475 39.9508 12.2992C40.3025 12.6508 40.5 13.1277 40.5 13.625V18.625C40.5 19.1223 40.3025 19.5992 39.9508 19.9508C39.5992 20.3025 39.1223 20.5 38.625 20.5ZM17.375 13C17.2092 13 17.0503 13.0658 16.9331 13.1831C16.8158 13.3003 16.75 13.4592 16.75 13.625V18.625C16.75 18.7908 16.8158 18.9497 16.9331 19.0669C17.0503 19.1842 17.2092 19.25 17.375 19.25H38.625C38.7908 19.25 38.9497 19.1842 39.0669 19.0669C39.1842 18.9497 39.25 18.7908 39.25 18.625V13.625C39.25 13.4592 39.1842 13.3003 39.0669 13.1831C38.9497 13.0658 38.7908 13 38.625 13H17.375Z" fill="white"/>
</svg>
