<svg width="88" height="88" viewBox="0 0 88 88" fill="none" xmlns="http://www.w3.org/2000/svg">
<path d="M54 88C83.7758 88 108 63.7758 108 34C108 4.22422 83.7758 -20 54 -20C24.2242 -20 0 4.22422 0 34C0 63.7758 24.2242 88 54 88ZM54 -15.1847C81.1209 -15.1847 103.185 6.87908 103.185 34C103.185 61.1209 81.1209 83.1847 54 83.1847C26.8791 83.1847 4.81529 61.1209 4.81529 34C4.81529 6.87908 26.8791 -15.1847 54 -15.1847Z" fill="#DEE2E6"/>
<path d="M40.6895 29.1472C46.1967 29.1472 50.66 24.6825 50.66 19.1767C50.6613 13.6695 46.1967 9.20483 40.6895 9.20483C35.1823 9.20483 30.719 13.6695 30.719 19.1753C30.7244 24.6799 35.185 29.1404 40.6895 29.1472ZM40.6895 14.0201C43.5365 14.0201 45.8447 16.3283 45.8447 19.1753C45.846 22.0237 43.5378 24.3319 40.6895 24.3319C37.8425 24.3319 35.5343 22.0237 35.5343 19.1753C35.537 16.3297 37.8438 14.0242 40.6895 14.0201Z" fill="#DEE2E6"/>
<path d="M56.7356 49.4294C56.7356 54.9366 61.2002 59.3998 66.7061 59.3998C72.2133 59.3998 76.6779 54.9366 76.6779 49.4294C76.6779 43.9221 72.2133 39.4575 66.7061 39.4575C61.2015 39.4642 56.7423 43.9248 56.7356 49.4294ZM71.8626 49.4294C71.8626 52.2763 69.5544 54.5846 66.7061 54.5846C63.8591 54.5846 61.5509 52.2763 61.5509 49.4294C61.5509 46.5824 63.8591 44.2741 66.7061 44.2728C69.553 44.2768 71.8586 46.5824 71.8626 49.4294Z" fill="#DEE2E6"/>
<path d="M35.6672 62.1099C36.7811 62.8368 38.2737 62.5224 38.9993 61.4086L73.0341 9.22236C73.5057 8.50087 73.5567 7.58322 73.1684 6.81471C72.7788 6.0462 72.009 5.54372 71.1491 5.49803C70.2892 5.45235 69.4696 5.86885 69.0007 6.59168L34.9659 58.7779C34.2391 59.893 34.5534 61.3844 35.6672 62.1099Z" fill="#DEE2E6"/>
</svg>
