<svg width="72" height="72" viewBox="0 0 72 72" fill="none" xmlns="http://www.w3.org/2000/svg">
<rect width="72" height="72" rx="36" fill="#66A80F"/>
<path d="M52.6268 31.7855C52.5136 31.724 52.3858 31.6943 52.2571 31.6994C52.1283 31.7045 52.0033 31.7443 51.8953 31.8146L45.6715 35.8591V33.8166C45.6709 33.2722 45.4543 32.7504 45.0694 32.3655C44.6845 31.9806 44.1627 31.7641 43.6183 31.7634H40.0296C39.9122 30.7773 39.4373 29.8684 38.6947 29.209C37.9521 28.5495 36.9935 28.1853 36.0004 28.1853C35.0072 28.1853 34.0486 28.5495 33.306 29.209C32.5635 29.8684 32.0885 30.7773 31.9711 31.7634H21.0523C20.5079 31.7641 19.9861 31.9806 19.6012 32.3655C19.2163 32.7504 18.9997 33.2722 18.9991 33.8166V48.8295C18.9997 49.3739 19.2163 49.8957 19.6012 50.2806C19.9861 50.6655 20.5079 50.8821 21.0523 50.8827H43.6183C44.1627 50.8821 44.6845 50.6655 45.0694 50.2806C45.4543 49.8957 45.6709 49.3739 45.6715 48.8295V46.7882L51.8953 50.8312C52.0033 50.9011 52.1282 50.9407 52.2568 50.9457C52.3854 50.9506 52.5129 50.9208 52.626 50.8594C52.7391 50.7979 52.8335 50.7071 52.8994 50.5965C52.9652 50.4859 52.9999 50.3596 53 50.2309V32.4148C53 32.2861 52.9654 32.1597 52.8997 32.049C52.8341 31.9382 52.7398 31.8472 52.6268 31.7855ZM34.1393 30.3899C34.5699 29.9592 35.1365 29.6912 35.7425 29.6315C36.3486 29.5718 36.9565 29.7241 37.4629 30.0624C37.9692 30.4008 38.3426 30.9042 38.5194 31.4869C38.6961 32.0697 38.6654 32.6957 38.4323 33.2583C38.1993 33.8209 37.7783 34.2853 37.2412 34.5724C36.7042 34.8594 36.0842 34.9514 35.4869 34.8325C34.8896 34.7137 34.3521 34.3914 33.9658 33.9206C33.5795 33.4499 33.3684 32.8597 33.3684 32.2507C33.3675 31.905 33.4352 31.5625 33.5675 31.2431C33.6998 30.9237 33.8941 30.6337 34.1393 30.3899ZM44.2394 48.8295C44.2392 48.9942 44.1737 49.1521 44.0573 49.2685C43.9409 49.3849 43.783 49.4504 43.6183 49.4506H21.0523C20.8876 49.4504 20.7297 49.3849 20.6133 49.2685C20.4969 49.1521 20.4314 48.9942 20.4311 48.8295V33.8166C20.4314 33.6519 20.4969 33.4941 20.6133 33.3776C20.7297 33.2612 20.8876 33.1957 21.0523 33.1955H32.0534C32.2634 34.0845 32.7674 34.8766 33.4838 35.4434C34.2001 36.0103 35.0869 36.3187 36.0004 36.3187C36.9139 36.3187 37.8006 36.0103 38.517 35.4434C39.2333 34.8766 39.7373 34.0845 39.9473 33.1955H43.6183C43.783 33.1957 43.9409 33.2612 44.0573 33.3776C44.1737 33.4941 44.2392 33.6519 44.2394 33.8166V48.8295ZM51.5692 48.9114L45.6715 45.0808V37.5649L51.5692 33.7339V48.9114Z" fill="white"/>
<path d="M29.8791 26.1303C29.8125 26.1968 29.7597 26.2758 29.7236 26.3627C29.6876 26.4496 29.669 26.5428 29.6689 26.6368C29.6689 26.7309 29.6873 26.8241 29.7233 26.9111C29.7592 26.998 29.812 27.077 29.8785 27.1436C29.945 27.2102 30.0239 27.263 30.1108 27.2991C30.1977 27.3351 30.2909 27.3537 30.385 27.3538C30.4791 27.3538 30.5723 27.3354 30.6592 27.2994C30.7462 27.2634 30.8252 27.2107 30.8918 27.1442C32.2467 25.7896 34.0842 25.0285 36.0001 25.0285C37.9161 25.0285 39.7536 25.7896 41.1085 27.1442C41.2428 27.2785 41.4249 27.354 41.6149 27.354C41.8048 27.354 41.9869 27.2785 42.1212 27.1442C42.2555 27.0099 42.3309 26.8278 42.3309 26.6379C42.3309 26.448 42.2555 26.2658 42.1212 26.1316C40.4978 24.5082 38.296 23.5962 36.0001 23.5962C33.7043 23.5962 31.5025 24.5082 29.8791 26.1316V26.1303Z" fill="white"/>
<path d="M27.1741 24.1408C27.2681 24.141 27.3613 24.1226 27.4481 24.0867C27.535 24.0507 27.6139 23.9979 27.6803 23.9314C29.8868 21.7248 32.8796 20.4852 36.0001 20.4852C39.1207 20.4852 42.1134 21.7248 44.32 23.9314C44.3865 23.9979 44.4655 24.0506 44.5523 24.0866C44.6392 24.1226 44.7323 24.1411 44.8264 24.1411C44.9204 24.1411 45.0135 24.1226 45.1004 24.0866C45.1873 24.0506 45.2662 23.9979 45.3327 23.9314C45.3992 23.8649 45.4519 23.7859 45.4879 23.699C45.5239 23.6122 45.5424 23.5191 45.5424 23.425C45.5424 23.331 45.5239 23.2379 45.4879 23.151C45.4519 23.0641 45.3992 22.9852 45.3327 22.9187C42.8575 20.4437 39.5005 19.0532 36.0001 19.0532C32.4998 19.0532 29.1428 20.4437 26.6676 22.9187C26.5675 23.0188 26.4993 23.1464 26.4718 23.2853C26.4442 23.4242 26.4584 23.5682 26.5126 23.699C26.5668 23.8298 26.6586 23.9416 26.7763 24.0202C26.8941 24.0989 27.0325 24.1409 27.1741 24.1408Z" fill="white"/>
</svg>
