<svg width="72" height="72" viewBox="0 0 72 72" fill="none" xmlns="http://www.w3.org/2000/svg">
<rect width="72" height="72" rx="36" fill="#66A80F"/>
<path d="M53.864 40.3445C51.77 38.2506 48.682 37.7423 46.1049 38.8189V26.4033C46.1049 25.8896 45.9048 25.4066 45.5416 25.0434L39.0621 18.5632C38.9105 18.4116 38.734 18.2878 38.5425 18.1949C38.5422 18.1947 38.5417 18.1946 38.5414 18.1943C38.5325 18.1901 38.5238 18.1857 38.5148 18.1816C38.498 18.1734 38.481 18.1658 38.4636 18.1589C38.2242 18.0557 37.9644 18 37.7015 18H22.091C20.9703 18 20.0583 18.9118 20.0583 20.0327V51.9673C20.0583 53.0882 20.9702 54 22.091 54H44.0722C45.1454 54 46.0368 53.1609 46.1015 52.0897C46.1024 52.0756 46.1028 52.0615 46.1028 52.0474V51.9018C46.9785 52.2679 47.913 52.4515 48.8477 52.4515C50.6644 52.4515 52.481 51.76 53.864 50.377C55.2039 49.0371 55.9418 47.2556 55.9418 45.3607C55.9418 43.4659 55.2038 41.6844 53.864 40.3445ZM43.7068 25.1952H39.0653C38.9796 25.1952 38.9099 25.1254 38.9099 25.0397V20.3977L43.7068 25.1952ZM44.698 52.0223C44.6697 52.345 44.398 52.5952 44.0722 52.5952H22.091C21.7448 52.5952 21.4631 52.3136 21.4631 51.9673V20.0327C21.4631 19.6864 21.7448 19.4048 22.091 19.4048H37.5052V25.0397C37.5052 25.9 38.2051 26.5999 39.0654 26.5999H44.7002V39.6053C44.3959 39.8248 44.1051 40.0709 43.8315 40.3445C42.4916 41.6845 41.7537 43.4659 41.7537 45.3608C41.7537 47.2557 42.4916 49.0372 43.8315 50.3771C44.1045 50.6501 44.3946 50.8957 44.6981 51.1148V52.0223H44.698ZM52.8706 49.3837C50.6523 51.602 47.043 51.602 44.8247 49.3837C43.7501 48.3091 43.1583 46.8804 43.1583 45.3608C43.1583 43.8412 43.7501 42.4124 44.8247 41.3379C45.9338 40.2288 47.3907 39.6742 48.8476 39.6742C50.3045 39.6742 51.7614 40.2288 52.8705 41.3379C53.9451 42.4125 54.5369 43.8412 54.5369 45.3608C54.5369 46.8804 53.9452 48.3091 52.8706 49.3837Z" fill="white"/>
<path d="M51.3426 43.336L48.0471 46.1379L46.3657 44.3805C46.0976 44.1001 45.653 44.0904 45.3726 44.3585C45.0924 44.6267 45.0825 45.0713 45.3507 45.3516L47.4898 47.5877C47.6274 47.7314 47.8121 47.8045 47.9976 47.8045C48.1588 47.8045 48.3206 47.7492 48.4524 47.6372L52.2526 44.4063C52.5481 44.155 52.584 43.7117 52.3327 43.4162C52.0815 43.1206 51.6381 43.0847 51.3426 43.336Z" fill="white"/>
</svg>
