<svg width="72" height="72" viewBox="0 0 72 72" fill="none" xmlns="http://www.w3.org/2000/svg">
<rect width="72" height="72" rx="36" fill="#66A80F"/>
<g clip-path="url(#clip0)">
<path d="M51.1469 24.0989L36.1132 16.0881C35.8901 15.9691 35.6228 15.9708 35.4015 16.0923L20.7837 24.1031C20.544 24.2346 20.3953 24.4861 20.3953 24.7596V35.2237C20.4041 43.8255 25.5004 51.6074 33.3817 55.0535L35.4107 55.9377C35.6003 56.0204 35.8162 56.0208 36.0062 55.9385L38.2925 54.9512C46.32 51.5798 51.5424 43.7228 51.5433 35.0162V24.7596C51.5433 24.4831 51.3908 24.2288 51.1469 24.0989ZM50.0464 35.0162C50.0447 43.1226 45.181 50.4371 37.7066 53.5741L37.7015 53.5767L35.7105 54.4362L33.9806 53.6815C26.6444 50.4738 21.9001 43.2307 21.8918 35.2237V25.2028L35.7661 17.5988L50.0464 25.2082V35.0162Z" fill="white"/>
<path d="M35.454 42.216C38.082 42.216 39.954 40.542 39.954 38.076C39.954 35.646 38.046 34.188 35.598 34.188C34.554 34.188 33.852 34.422 33.114 34.746L33.384 30.714H39.396V29.4H32.142L31.782 35.538L32.736 36.168C33.474 35.772 34.32 35.448 35.382 35.448C37.218 35.448 38.514 36.528 38.514 38.094C38.514 39.732 37.272 40.92 35.472 40.92C34.194 40.92 32.988 40.254 31.89 39.192L30.954 40.218C32.088 41.352 33.654 42.216 35.454 42.216Z" fill="white"/>
</g>
<defs>
<clipPath id="clip0">
<rect x="16" y="16" width="40" height="40" fill="white"/>
</clipPath>
</defs>
</svg>
