<svg width="72" height="72" viewBox="0 0 72 72" fill="none" xmlns="http://www.w3.org/2000/svg">
<rect width="72" height="72" rx="36" fill="#66A80F"/>
<path d="M20.5625 21.1562C20.8904 21.1562 21.1562 20.8904 21.1562 20.5625C21.1562 20.2346 20.8904 19.9688 20.5625 19.9688C20.2346 19.9688 19.9688 20.2346 19.9688 20.5625C19.9688 20.8904 20.2346 21.1562 20.5625 21.1562Z" fill="white"/>
<path d="M24.7188 21.1562C25.0467 21.1562 25.3125 20.8904 25.3125 20.5625C25.3125 20.2346 25.0467 19.9688 24.7188 19.9688C24.3908 19.9688 24.125 20.2346 24.125 20.5625C24.125 20.8904 24.3908 21.1562 24.7188 21.1562Z" fill="white"/>
<path d="M29.4688 21.1562C29.7967 21.1562 30.0625 20.8904 30.0625 20.5625C30.0625 20.2346 29.7967 19.9688 29.4688 19.9688C29.1408 19.9688 28.875 20.2346 28.875 20.5625C28.875 20.8904 29.1408 21.1562 29.4688 21.1562Z" fill="white"/>
<path d="M33.625 21.1562C33.9529 21.1562 34.2188 20.8904 34.2188 20.5625C34.2188 20.2346 33.9529 19.9688 33.625 19.9688C33.2971 19.9688 33.0312 20.2346 33.0312 20.5625C33.0312 20.8904 33.2971 21.1562 33.625 21.1562Z" fill="white"/>
<path d="M53.8125 17.5938H18.1875C18.03 17.5938 17.879 17.6563 17.7677 17.7677C17.6563 17.879 17.5938 18.03 17.5938 18.1875V53.8125C17.5938 53.97 17.6563 54.121 17.7677 54.2323C17.879 54.3437 18.03 54.4062 18.1875 54.4062H53.8125C53.97 54.4062 54.121 54.3437 54.2323 54.2323C54.3437 54.121 54.4062 53.97 54.4062 53.8125V18.1875C54.4062 18.03 54.3437 17.879 54.2323 17.7677C54.121 17.6563 53.97 17.5938 53.8125 17.5938ZM36.5938 35.4062V27.6875H53.2188V35.4062H36.5938ZM35.4062 44.3125H18.7812V36.5938H35.4062V44.3125ZM53.2188 26.5H36.5938V18.7812H53.2188V26.5ZM35.4062 18.7812V35.4062H27.6875V18.7812H35.4062ZM18.7812 18.7812H26.5V35.4062H18.7812V18.7812ZM18.7812 45.5H35.4062V53.2188H18.7812V45.5ZM36.5938 53.2188V36.5938H44.3125V53.2188H36.5938ZM53.2188 53.2188H45.5V36.5938H53.2188V53.2188Z" fill="white"/>
<path d="M51.4375 21.1562C51.7654 21.1562 52.0312 20.8904 52.0312 20.5625C52.0312 20.2346 51.7654 19.9688 51.4375 19.9688C51.1096 19.9688 50.8438 20.2346 50.8438 20.5625C50.8438 20.8904 51.1096 21.1562 51.4375 21.1562Z" fill="white"/>
<path d="M51.4375 25.3125C51.7654 25.3125 52.0312 25.0467 52.0312 24.7188C52.0312 24.3908 51.7654 24.125 51.4375 24.125C51.1096 24.125 50.8438 24.3908 50.8438 24.7188C50.8438 25.0467 51.1096 25.3125 51.4375 25.3125Z" fill="white"/>
<path d="M51.4375 30.0625C51.7654 30.0625 52.0312 29.7967 52.0312 29.4688C52.0312 29.1408 51.7654 28.875 51.4375 28.875C51.1096 28.875 50.8438 29.1408 50.8438 29.4688C50.8438 29.7967 51.1096 30.0625 51.4375 30.0625Z" fill="white"/>
<path d="M51.4375 34.2188C51.7654 34.2188 52.0312 33.9529 52.0312 33.625C52.0312 33.2971 51.7654 33.0312 51.4375 33.0312C51.1096 33.0312 50.8438 33.2971 50.8438 33.625C50.8438 33.9529 51.1096 34.2188 51.4375 34.2188Z" fill="white"/>
<path d="M33.625 33.0312C33.7825 33.0312 33.9335 32.9687 34.0448 32.8573C34.1562 32.746 34.2188 32.595 34.2188 32.4375V25.3125C34.2188 25.155 34.1562 25.004 34.0448 24.8927C33.9335 24.7813 33.7825 24.7188 33.625 24.7188C33.4675 24.7188 33.3165 24.7813 33.2052 24.8927C33.0938 25.004 33.0312 25.155 33.0312 25.3125V32.4375C33.0312 32.595 33.0938 32.746 33.2052 32.8573C33.3165 32.9687 33.4675 33.0312 33.625 33.0312Z" fill="white"/>
<path d="M38.375 21.1562H43.125C43.2825 21.1562 43.4335 21.0937 43.5448 20.9823C43.6562 20.871 43.7188 20.72 43.7188 20.5625C43.7188 20.405 43.6562 20.254 43.5448 20.1427C43.4335 20.0313 43.2825 19.9688 43.125 19.9688H38.375C38.2175 19.9688 38.0665 20.0313 37.9552 20.1427C37.8438 20.254 37.7812 20.405 37.7812 20.5625C37.7812 20.72 37.8438 20.871 37.9552 20.9823C38.0665 21.0937 38.2175 21.1562 38.375 21.1562Z" fill="white"/>
<path d="M51.4375 52.0312C51.7654 52.0312 52.0312 51.7654 52.0312 51.4375C52.0312 51.1096 51.7654 50.8438 51.4375 50.8438C51.1096 50.8438 50.8438 51.1096 50.8438 51.4375C50.8438 51.7654 51.1096 52.0312 51.4375 52.0312Z" fill="white"/>
<path d="M47.2812 52.0312C47.6092 52.0312 47.875 51.7654 47.875 51.4375C47.875 51.1096 47.6092 50.8438 47.2812 50.8438C46.9533 50.8438 46.6875 51.1096 46.6875 51.4375C46.6875 51.7654 46.9533 52.0312 47.2812 52.0312Z" fill="white"/>
<path d="M42.5312 52.0312C42.8592 52.0312 43.125 51.7654 43.125 51.4375C43.125 51.1096 42.8592 50.8438 42.5312 50.8438C42.2033 50.8438 41.9375 51.1096 41.9375 51.4375C41.9375 51.7654 42.2033 52.0312 42.5312 52.0312Z" fill="white"/>
<path d="M38.375 52.0312C38.7029 52.0312 38.9688 51.7654 38.9688 51.4375C38.9688 51.1096 38.7029 50.8438 38.375 50.8438C38.0471 50.8438 37.7812 51.1096 37.7812 51.4375C37.7812 51.7654 38.0471 52.0312 38.375 52.0312Z" fill="white"/>
<path d="M20.5625 52.0312C20.8904 52.0312 21.1562 51.7654 21.1562 51.4375C21.1562 51.1096 20.8904 50.8438 20.5625 50.8438C20.2346 50.8438 19.9688 51.1096 19.9688 51.4375C19.9688 51.7654 20.2346 52.0312 20.5625 52.0312Z" fill="white"/>
<path d="M20.5625 47.875C20.8904 47.875 21.1562 47.6092 21.1562 47.2812C21.1562 46.9533 20.8904 46.6875 20.5625 46.6875C20.2346 46.6875 19.9688 46.9533 19.9688 47.2812C19.9688 47.6092 20.2346 47.875 20.5625 47.875Z" fill="white"/>
<path d="M20.5625 43.125C20.8904 43.125 21.1562 42.8592 21.1562 42.5312C21.1562 42.2033 20.8904 41.9375 20.5625 41.9375C20.2346 41.9375 19.9688 42.2033 19.9688 42.5312C19.9688 42.8592 20.2346 43.125 20.5625 43.125Z" fill="white"/>
<path d="M20.5625 38.9688C20.8904 38.9688 21.1562 38.7029 21.1562 38.375C21.1562 38.0471 20.8904 37.7812 20.5625 37.7812C20.2346 37.7812 19.9688 38.0471 19.9688 38.375C19.9688 38.7029 20.2346 38.9688 20.5625 38.9688Z" fill="white"/>
<path d="M38.375 38.9688C38.2175 38.9688 38.0665 39.0313 37.9552 39.1427C37.8438 39.254 37.7812 39.405 37.7812 39.5625V46.6875C37.7812 46.845 37.8438 46.996 37.9552 47.1073C38.0665 47.2187 38.2175 47.2812 38.375 47.2812C38.5325 47.2812 38.6835 47.2187 38.7948 47.1073C38.9062 46.996 38.9688 46.845 38.9688 46.6875V39.5625C38.9688 39.405 38.9062 39.254 38.7948 39.1427C38.6835 39.0313 38.5325 38.9688 38.375 38.9688Z" fill="white"/>
<path d="M33.625 50.8438H28.875C28.7175 50.8438 28.5665 50.9063 28.4552 51.0177C28.3438 51.129 28.2812 51.28 28.2812 51.4375C28.2812 51.595 28.3438 51.746 28.4552 51.8573C28.5665 51.9687 28.7175 52.0312 28.875 52.0312H33.625C33.7825 52.0312 33.9335 51.9687 34.0448 51.8573C34.1562 51.746 34.2188 51.595 34.2188 51.4375C34.2188 51.28 34.1562 51.129 34.0448 51.0177C33.9335 50.9063 33.7825 50.8438 33.625 50.8438Z" fill="white"/>
</svg>
