<svg width="72" height="72" viewBox="0 0 72 72" fill="none" xmlns="http://www.w3.org/2000/svg">
<rect width="72" height="72" rx="36" fill="#66A80F"/>
<g clip-path="url(#clip0)">
<path d="M45.7086 21.3752H18.7921C18.3551 21.3752 18.0004 21.7299 18.0004 22.1669V45.9167C18.0004 46.3537 18.3551 46.7084 18.7921 46.7084H45.7086C46.1456 46.7084 46.5002 46.3537 46.5002 45.9167V22.1669C46.5002 21.7299 46.1456 21.3752 45.7086 21.3752ZM44.9169 45.125H19.5838V22.9586H44.9169V45.125Z" fill="white"/>
<path d="M46.4163 45.5618L37.7081 28.1454C37.5766 27.8841 37.3138 27.7163 37.0209 27.7084C36.7201 27.6941 36.4572 27.8541 36.3116 28.1074L30.4929 38.2913L26.476 34.2744C26.3066 34.105 26.0659 34.0211 25.8316 34.0464C25.5941 34.0733 25.3803 34.2047 25.2505 34.4058L18.1256 45.489C17.8896 45.858 17.9958 46.3472 18.3631 46.5831C18.732 46.8206 19.2213 46.7129 19.4571 46.3456L26.0501 36.0872L30.1065 40.1437C30.2807 40.3179 30.5293 40.4002 30.7715 40.3685C31.017 40.3353 31.2323 40.1896 31.3542 39.9758L36.9544 30.1767L44.9993 46.2711C45.1386 46.5481 45.4173 46.7081 45.7086 46.7081C45.8289 46.7081 45.9493 46.6811 46.0616 46.6241C46.4528 46.428 46.6127 45.953 46.4163 45.5618Z" fill="white"/>
<path d="M26.7087 24.5417C24.527 24.5417 22.7505 26.3182 22.7505 28.5C22.7505 30.6818 24.527 32.4583 26.7087 32.4583C28.8905 32.4583 30.667 30.6818 30.667 28.5C30.667 26.3182 28.8905 24.5417 26.7087 24.5417ZM26.7087 30.875C25.3993 30.875 24.3338 29.8095 24.3338 28.5C24.3338 27.1906 25.3993 26.125 26.7087 26.125C28.0182 26.125 29.0837 27.1906 29.0837 28.5C29.0837 29.8095 28.0182 30.875 26.7087 30.875Z" fill="white"/>
<path d="M55.647 34.1749L46.1471 27.8417C45.7814 27.5994 45.2921 27.6992 45.0499 28.0617C44.8076 28.4259 44.9058 28.9167 45.2699 29.159L54.1491 35.079L43.8323 52.7647L30.2602 45.2249C29.8786 45.0111 29.3957 45.1504 29.1835 45.5321C28.9697 45.9152 29.1075 46.3966 29.4907 46.6087L43.7405 54.5254C43.8608 54.5934 43.9938 54.6251 44.1237 54.6251C44.3976 54.6251 44.662 54.4842 44.8093 54.2324L55.8925 35.2326C56.103 34.87 55.9954 34.4061 55.647 34.1749Z" fill="white"/>
</g>
<defs>
<clipPath id="clip0">
<rect x="18" y="19" width="38" height="38" fill="white"/>
</clipPath>
</defs>
</svg>
