<svg width="72" height="72" viewBox="0 0 72 72" fill="none" xmlns="http://www.w3.org/2000/svg">
<rect width="72" height="72" rx="36" fill="#66A80F"/>
<path d="M42.3333 17C35.349 17 29.6666 22.6824 29.6666 29.6667C29.6666 30.4985 29.7571 31.3521 29.9357 32.2094L28.5208 32.9168C28.2935 33.0304 28.1343 33.2469 28.0933 33.4982C28.0524 33.7494 28.1351 34.0046 28.3152 34.1847L29.3389 35.2083L28.5472 36H27.2916C26.854 36 26.4999 36.3541 26.4999 36.7917V38.0473L25.3805 39.1667H24.125C23.6874 39.1667 23.3333 39.5208 23.3333 39.9584V41.2139L22.2139 42.3333H20.9583C20.5207 42.3333 20.1666 42.6874 20.1666 43.125V44.3806L17.2319 47.3152C17.0835 47.4637 17 47.6647 17 47.875V54.2083C17 54.6459 17.3541 55 17.7917 55H24.125C24.3353 55 24.5363 54.9165 24.6848 54.7681L36.7917 42.6611L37.8153 43.6848C37.9947 43.8649 38.2506 43.9492 38.5018 43.9067C38.7531 43.8657 38.9696 43.7064 39.0832 43.4792L39.7906 42.0643C47.8456 43.7435 55 37.4828 55 29.6667C55 22.6824 49.3177 17 42.3333 17ZM39.5586 40.3851C39.1999 40.2939 38.8203 40.464 38.6533 40.7979L38.1578 41.7883L37.3514 40.9819C37.0421 40.6727 36.5411 40.6727 36.2319 40.9819L23.7972 53.4167H18.5833V48.2028L21.5181 45.2681C21.6665 45.1196 21.75 44.9186 21.75 44.7083V43.9166H22.5417C22.752 43.9166 22.953 43.8331 23.1014 43.6847L24.6848 42.1014C24.8332 41.9529 24.9167 41.752 24.9167 41.5416V40.75H25.7084C25.9186 40.75 26.1197 40.6665 26.2681 40.5181L27.8514 38.9348C27.9999 38.7863 28.0834 38.5853 28.0834 38.375V37.5833H28.875C29.0853 37.5833 29.2863 37.4998 29.4348 37.3514L31.0181 35.7681C31.3273 35.4588 31.3273 34.9578 31.0181 34.6486L30.2117 33.8422L31.2021 33.3467C31.536 33.1797 31.7077 32.8024 31.6149 32.4414C31.373 31.5012 31.25 30.5681 31.25 29.6667C31.25 23.5552 36.2219 18.5834 42.3333 18.5834C48.4447 18.5834 53.4166 23.5553 53.4166 29.6667C53.4167 36.6795 46.8723 42.2684 39.5586 40.3851Z" fill="white"/>
<path d="M46.2917 21.75C44.1092 21.75 42.3334 23.5258 42.3334 25.7083C42.3334 27.8908 44.1092 29.6666 46.2917 29.6666C48.4742 29.6666 50.25 27.8909 50.25 25.7083C50.25 23.5258 48.4742 21.75 46.2917 21.75ZM46.2917 28.0833C44.982 28.0833 43.9167 27.018 43.9167 25.7083C43.9167 24.3986 44.982 23.3333 46.2917 23.3333C47.6013 23.3333 48.6667 24.3986 48.6667 25.7083C48.6667 27.018 47.6013 28.0833 46.2917 28.0833Z" fill="white"/>
<path d="M33.0653 37.8151L21.982 48.8985C21.6727 49.2078 21.6727 49.7088 21.982 50.018C22.1365 50.1725 22.3392 50.2499 22.5417 50.2499C22.7443 50.2499 22.9468 50.1725 23.1015 50.018L34.1848 38.9347C34.494 38.6254 34.494 38.1244 34.1848 37.8152C33.8755 37.5059 33.3745 37.5059 33.0653 37.8151Z" fill="white"/>
</svg>
