<svg width="464" height="293" viewBox="0 0 464 293" fill="none" xmlns="http://www.w3.org/2000/svg">
<path d="M25.5502 82.2919C24.8831 82.7832 24.7406 83.7221 25.2318 84.3892C25.723 85.0563 26.662 85.1989 27.3291 84.7077L25.5502 82.2919ZM412 293L417.292 276.508L400.363 280.171L412 293ZM35.4488 79.0166C36.1383 78.5574 36.325 77.6262 35.8657 76.9367C35.4065 76.2472 34.4752 76.0606 33.7858 76.5198L35.4488 79.0166ZM50.8863 66.2988C50.1549 66.6877 49.8772 67.596 50.2661 68.3274C50.6551 69.0589 51.5633 69.3365 52.2948 68.9476L50.8863 66.2988ZM70.0588 60.6559C70.827 60.3457 71.1982 59.4715 70.8879 58.7033C70.5777 57.9352 69.7035 57.564 68.9354 57.8742L70.0588 60.6559ZM87.8265 51.4121C87.0292 51.637 86.5652 52.4657 86.7901 53.263C87.015 54.0603 87.8436 54.5244 88.6409 54.2995L87.8265 51.4121ZM107.805 50.0162C108.622 49.8802 109.174 49.1074 109.038 48.2903C108.902 47.4731 108.129 46.9209 107.312 47.0569L107.805 50.0162ZM127.141 44.8551C126.314 44.9021 125.681 45.6107 125.728 46.4378C125.775 47.2648 126.484 47.8972 127.311 47.8503L127.141 44.8551ZM146.948 47.7661C147.775 47.8053 148.478 47.1662 148.517 46.3387C148.556 45.5112 147.917 44.8086 147.09 44.7694L146.948 47.7661ZM166.936 46.7005C166.116 46.5803 165.354 47.1473 165.234 47.9669C165.114 48.7866 165.681 49.5485 166.5 49.6687L166.936 46.7005ZM185.797 53.4212C186.602 53.616 187.412 53.1212 187.607 52.316C187.802 51.5108 187.307 50.7001 186.502 50.5053L185.797 53.4212ZM205.657 56.0229C204.871 55.7604 204.022 56.1845 203.759 56.9702C203.497 57.756 203.921 58.6057 204.706 58.8683L205.657 56.0229ZM223.115 65.8461C223.878 66.1696 224.759 65.8136 225.082 65.0509C225.406 64.2883 225.05 63.4078 224.287 63.0843L223.115 65.8461ZM242.309 71.5269C241.572 71.1486 240.668 71.4395 240.29 72.1766C239.912 72.9136 240.203 73.8177 240.94 74.1959L242.309 71.5269ZM258.147 83.788C258.856 84.2155 259.778 83.9868 260.205 83.2772C260.633 82.5676 260.404 81.6458 259.695 81.2183L258.147 83.788ZM276.404 92.0352C275.723 91.5632 274.788 91.7325 274.316 92.4133C273.844 93.0941 274.014 94.0286 274.694 94.5006L276.404 92.0352ZM290.549 106.228C291.2 106.74 292.143 106.628 292.656 105.977C293.168 105.326 293.056 104.383 292.405 103.871L290.549 106.228ZM307.664 116.626C307.044 116.076 306.096 116.133 305.547 116.753C304.997 117.373 305.054 118.321 305.674 118.871L307.664 116.626ZM320.055 132.363C320.643 132.947 321.592 132.943 322.176 132.356C322.76 131.768 322.756 130.818 322.168 130.234L320.055 132.363ZM335.889 144.633C335.335 144.018 334.386 143.969 333.771 144.523C333.155 145.078 333.106 146.027 333.661 146.642L335.889 144.633ZM346.457 161.65C346.977 162.295 347.921 162.397 348.566 161.877C349.211 161.357 349.313 160.413 348.793 159.768L346.457 161.65ZM360.837 175.59C360.354 174.917 359.417 174.763 358.744 175.246C358.071 175.73 357.917 176.667 358.401 177.34L360.837 175.59ZM369.447 193.678C369.891 194.378 370.818 194.584 371.518 194.14C372.217 193.696 372.424 192.769 371.979 192.07L369.447 193.678ZM382.156 209.171C381.754 208.447 380.84 208.186 380.116 208.589C379.392 208.991 379.131 209.904 379.534 210.629L382.156 209.171ZM388.578 228.146C388.936 228.893 389.831 229.21 390.578 228.853C391.326 228.496 391.643 227.601 391.286 226.853L388.578 228.146ZM399.274 245.073C398.967 244.304 398.094 243.929 397.324 244.237C396.555 244.544 396.181 245.417 396.488 246.186L399.274 245.073ZM403.155 264.712C403.408 265.501 404.252 265.936 405.041 265.684C405.83 265.431 406.265 264.587 406.012 263.798L403.155 264.712ZM411.37 282.998C411.179 282.192 410.37 281.694 409.564 281.886C408.758 282.077 408.26 282.886 408.451 283.692L411.37 282.998ZM27.3291 84.7077C30.0215 82.725 32.7285 80.8286 35.4488 79.0166L33.7858 76.5198C31.0258 78.3581 28.2803 80.2817 25.5502 82.2919L27.3291 84.7077ZM52.2948 68.9476C58.1704 65.8233 64.0956 63.0644 70.0588 60.6559L68.9354 57.8742C62.8741 60.3223 56.8539 63.1256 50.8863 66.2988L52.2948 68.9476ZM88.6409 54.2995C95.0028 52.505 101.395 51.083 107.805 50.0162L107.312 47.0569C100.795 48.1416 94.2953 49.5875 87.8265 51.4121L88.6409 54.2995ZM127.311 47.8503C133.856 47.4784 140.407 47.4563 146.948 47.7661L147.09 44.7694C140.447 44.4549 133.793 44.4772 127.141 44.8551L127.311 47.8503ZM166.5 49.6687C172.96 50.6161 179.396 51.8728 185.797 53.4212L186.502 50.5053C180.016 48.936 173.489 47.6616 166.936 46.7005L166.5 49.6687ZM204.706 58.8683C210.896 60.9361 217.036 63.2676 223.115 65.8461L224.287 63.0843C218.138 60.476 211.923 58.1165 205.657 56.0229L204.706 58.8683ZM240.94 74.1959C246.751 77.1781 252.491 80.3807 258.147 83.788L259.695 81.2183C253.982 77.7768 248.183 74.541 242.309 71.5269L240.94 74.1959ZM274.694 94.5006C280.076 98.232 285.365 102.146 290.549 106.228L292.405 103.871C287.174 99.752 281.837 95.8019 276.404 92.0352L274.694 94.5006ZM305.674 118.871C310.585 123.223 315.383 127.726 320.055 132.363L322.168 130.234C317.456 125.557 312.618 121.016 307.664 116.626L305.674 118.871ZM333.661 146.642C338.067 151.529 342.336 156.537 346.457 161.65L348.793 159.768C344.637 154.611 340.332 149.562 335.889 144.633L333.661 146.642ZM358.401 177.34C362.248 182.698 365.935 188.149 369.447 193.678L371.979 192.07C368.436 186.492 364.718 180.994 360.837 175.59L358.401 177.34ZM379.534 210.629C382.745 216.408 385.764 222.252 388.578 228.146L391.286 226.853C388.444 220.902 385.396 215.003 382.156 209.171L379.534 210.629ZM396.488 246.186C398.944 252.332 401.17 258.513 403.155 264.712L406.012 263.798C404.006 257.53 401.755 251.282 399.274 245.073L396.488 246.186ZM24.6608 81.0841C23.3266 82.0665 23.0415 83.9445 24.0239 85.2786C25.0064 86.6128 26.8843 86.898 28.2185 85.9155L24.6608 81.0841ZM412 293L422.584 260.015L388.727 267.342L412 293ZM36.2804 80.2651C37.6593 79.3466 38.0326 77.4841 37.1141 76.1052C36.1956 74.7262 34.3332 74.3529 32.9542 75.2714L36.2804 80.2651ZM50.1821 64.9744C48.7192 65.7522 48.1639 67.5688 48.9417 69.0316C49.7196 70.4945 51.5361 71.0499 52.999 70.272L50.1821 64.9744ZM70.6206 62.0468C72.1569 61.4263 72.8993 59.6779 72.2788 58.1416C71.6583 56.6053 69.9099 55.8629 68.3736 56.4834L70.6206 62.0468ZM87.4193 49.9684C85.8247 50.4182 84.8966 52.0756 85.3464 53.6702C85.7962 55.2648 87.4535 56.1929 89.0481 55.7431L87.4193 49.9684ZM108.051 51.4958C109.685 51.2238 110.79 49.6784 110.518 48.044C110.246 46.4096 108.7 45.3052 107.066 45.5772L108.051 51.4958ZM127.056 43.3575C125.402 43.4515 124.137 44.8687 124.231 46.5228C124.325 48.177 125.742 49.4418 127.396 49.3478L127.056 43.3575ZM146.877 49.2644C148.532 49.3428 149.937 48.0647 150.015 46.4097C150.094 44.7547 148.816 43.3495 147.161 43.2711L146.877 49.2644ZM167.153 45.2164C165.514 44.9759 163.99 46.11 163.75 47.7493C163.509 49.3886 164.643 50.9124 166.283 51.1529L167.153 45.2164ZM185.444 54.8791C187.054 55.2687 188.676 54.2791 189.065 52.6687C189.455 51.0583 188.465 49.437 186.855 49.0474L185.444 54.8791ZM206.132 54.6002C204.561 54.0751 202.861 54.9234 202.336 56.4949C201.811 58.0664 202.66 59.7659 204.231 60.291L206.132 54.6002ZM222.53 67.227C224.055 67.874 225.816 67.162 226.463 65.6367C227.11 64.1114 226.398 62.3504 224.873 61.7034L222.53 67.227ZM242.994 70.1923C241.52 69.4359 239.712 70.0176 238.955 71.4917C238.199 72.9658 238.781 74.774 240.255 75.5305L242.994 70.1923ZM257.373 85.0729C258.792 85.9278 260.635 85.4704 261.49 84.0512C262.345 82.632 261.888 80.7884 260.469 79.9334L257.373 85.0729ZM277.258 90.8025C275.897 89.8585 274.028 90.197 273.084 91.5586C272.14 92.9202 272.478 94.7893 273.84 95.7333L277.258 90.8025ZM289.622 107.406C290.923 108.431 292.81 108.207 293.834 106.905C294.859 105.603 294.635 103.717 293.333 102.692L289.622 107.406ZM308.659 115.503C307.419 114.404 305.523 114.518 304.424 115.758C303.325 116.998 303.439 118.894 304.679 119.993L308.659 115.503ZM318.998 133.428C320.174 134.595 322.073 134.588 323.241 133.412C324.408 132.236 324.401 130.337 323.225 129.17L318.998 133.428ZM337.003 143.629C335.894 142.398 333.997 142.3 332.766 143.409C331.536 144.519 331.437 146.416 332.547 147.646L337.003 143.629ZM345.289 162.592C346.329 163.882 348.218 164.085 349.508 163.045C350.798 162.005 351.001 160.116 349.961 158.826L345.289 162.592ZM362.056 174.715C361.089 173.369 359.215 173.061 357.869 174.028C356.523 174.994 356.216 176.869 357.182 178.215L362.056 174.715ZM368.181 194.483C369.07 195.881 370.924 196.295 372.322 195.406C373.721 194.518 374.134 192.664 373.246 191.265L368.181 194.483ZM383.467 208.443C382.662 206.995 380.836 206.473 379.388 207.278C377.939 208.082 377.418 209.909 378.222 211.357L383.467 208.443ZM387.225 228.792C387.939 230.287 389.73 230.921 391.225 230.207C392.72 229.493 393.353 227.702 392.639 226.207L387.225 228.792ZM400.667 244.516C400.052 242.978 398.306 242.229 396.768 242.844C395.229 243.459 394.48 245.204 395.095 246.743L400.667 244.516ZM401.726 265.17C402.232 266.748 403.92 267.617 405.498 267.112C407.076 266.607 407.946 264.918 407.441 263.34L401.726 265.17ZM412.83 282.652C412.446 281.04 410.829 280.043 409.217 280.427C407.605 280.81 406.609 282.427 406.992 284.039L412.83 282.652ZM28.2185 85.9155C30.8922 83.9467 33.5799 82.0638 36.2804 80.2651L32.9542 75.2714C30.1745 77.1229 27.4096 79.06 24.6608 81.0841L28.2185 85.9155ZM52.999 70.272C58.8287 67.1721 64.7063 64.4354 70.6206 62.0468L68.3736 56.4834C62.2634 58.9512 56.1956 61.7767 50.1821 64.9744L52.999 70.272ZM89.0481 55.7431C95.3565 53.9638 101.695 52.5537 108.051 51.4958L107.066 45.5772C100.495 46.6709 93.9416 48.1287 87.4193 49.9684L89.0481 55.7431ZM127.396 49.3478C133.888 48.979 140.386 48.957 146.877 49.2644L147.161 43.2711C140.468 42.9541 133.761 42.9766 127.056 43.3575L127.396 49.3478ZM166.283 51.1529C172.695 52.0934 179.087 53.3411 185.444 54.8791L186.855 49.0474C180.325 47.4677 173.753 46.1844 167.153 45.2164L166.283 51.1529ZM204.231 60.291C210.382 62.3459 216.486 64.6634 222.53 67.227L224.873 61.7034C218.688 59.0803 212.437 56.7067 206.132 54.6002L204.231 60.291ZM240.255 75.5305C246.035 78.4967 251.745 81.6826 257.373 85.0729L260.469 79.9334C254.728 76.4749 248.899 73.2225 242.994 70.1923L240.255 75.5305ZM273.84 95.7333C279.196 99.447 284.461 103.343 289.622 107.406L293.333 102.692C288.079 98.5551 282.717 94.5868 277.258 90.8025L273.84 95.7333ZM304.679 119.993C309.569 124.327 314.346 128.81 318.998 133.428L323.225 129.17C318.493 124.473 313.634 119.913 308.659 115.503L304.679 119.993ZM332.547 147.646C336.934 152.513 341.185 157.5 345.289 162.592L349.961 158.826C345.787 153.649 341.464 148.578 337.003 143.629L332.547 147.646ZM357.182 178.215C361.014 183.55 364.684 188.978 368.181 194.483L373.246 191.265C369.687 185.664 365.953 180.142 362.056 174.715L357.182 178.215ZM378.222 211.357C381.419 217.11 384.424 222.927 387.225 228.792L392.639 226.207C389.784 220.228 386.722 214.301 383.467 208.443L378.222 211.357ZM395.095 246.743C397.538 252.857 399.753 259.005 401.726 265.17L407.441 263.34C405.423 257.038 403.161 250.757 400.667 244.516L395.095 246.743Z" fill="#E6E2E1"/>
</svg>
