<svg width="405" height="386" viewBox="0 0 405 386" fill="none" xmlns="http://www.w3.org/2000/svg">
<path d="M369.596 82.9708C369.889 82.1956 370.754 81.8042 371.529 82.0965C372.304 82.3888 372.696 83.2542 372.403 84.0293L369.596 82.9708ZM1.00001 269.5L17.9983 266.174L12.3792 282.558L1.00001 269.5ZM368.855 93.153C368.547 93.9219 367.673 94.2953 366.904 93.987C366.135 93.6786 365.762 92.8054 366.07 92.0365L368.855 93.153ZM358.461 109.901C358.802 109.146 359.691 108.811 360.446 109.152C361.201 109.493 361.536 110.382 361.195 111.137L358.461 109.901ZM352.736 128.787C352.361 129.525 351.458 129.82 350.72 129.445C349.981 129.07 349.686 128.167 350.061 127.429L352.736 128.787ZM340.857 144.53C341.268 143.81 342.184 143.559 342.903 143.97C343.623 144.38 343.874 145.296 343.464 146.016L340.857 144.53ZM333.349 162.755C332.902 163.453 331.975 163.656 331.277 163.209C330.579 162.763 330.376 161.835 330.823 161.137L333.349 162.755ZM319.91 177.204C320.394 176.532 321.332 176.38 322.004 176.864C322.676 177.348 322.828 178.286 322.344 178.958L319.91 177.204ZM310.445 194.501C309.922 195.143 308.977 195.24 308.335 194.717C307.692 194.194 307.595 193.25 308.118 192.607L310.445 194.501ZM295.414 207.265C295.976 206.657 296.925 206.619 297.534 207.181C298.142 207.744 298.18 208.693 297.618 209.301L295.414 207.265ZM283.853 223.245C283.251 223.814 282.302 223.788 281.733 223.186C281.163 222.585 281.189 221.635 281.791 221.066L283.853 223.245ZM267.258 233.883C267.899 233.358 268.844 233.451 269.369 234.092C269.894 234.733 269.801 235.678 269.16 236.203L267.258 233.883ZM253.548 248.06C252.87 248.536 251.934 248.372 251.458 247.694C250.983 247.015 251.147 246.08 251.825 245.604L253.548 248.06ZM235.544 256.098C236.258 255.677 237.177 255.914 237.598 256.628C238.019 257.342 237.782 258.261 237.068 258.682L235.544 256.098ZM219.793 267.951C219.047 268.312 218.15 268.001 217.788 267.256C217.427 266.51 217.738 265.613 218.484 265.251L219.793 267.951ZM200.722 272.974C201.495 272.675 202.363 273.06 202.661 273.833C202.96 274.605 202.575 275.474 201.803 275.772L200.722 272.974ZM183.237 282.066C182.442 282.299 181.608 281.843 181.375 281.048C181.142 280.253 181.598 279.42 182.393 279.187L183.237 282.066ZM163.604 283.862C164.416 283.695 165.209 284.218 165.376 285.029C165.543 285.841 165.02 286.634 164.209 286.801L163.604 283.862ZM144.84 289.976C144.018 290.078 143.269 289.493 143.168 288.671C143.067 287.849 143.651 287.1 144.473 286.999L144.84 289.976ZM125.199 288.623C126.026 288.584 126.728 289.224 126.766 290.052C126.804 290.879 126.164 291.581 125.337 291.619L125.199 288.623ZM105.74 291.803C104.912 291.781 104.258 291.092 104.28 290.264C104.302 289.436 104.991 288.782 105.819 288.804L105.74 291.803ZM86.4372 287.62C87.2619 287.699 87.867 288.431 87.7887 289.255C87.7104 290.08 86.9784 290.685 86.1537 290.607L86.4372 287.62ZM66.7374 288.136C65.9192 288.006 65.3615 287.237 65.4916 286.419C65.6217 285.601 66.3904 285.043 67.2086 285.173L66.7374 288.136ZM48.1715 281.567C48.9807 281.744 49.4928 282.544 49.3153 283.353C49.1378 284.163 48.338 284.675 47.5288 284.497L48.1715 281.567ZM28.5467 279.79C27.7481 279.569 27.2796 278.743 27.5002 277.945C27.7207 277.146 28.5469 276.678 29.3454 276.898L28.5467 279.79ZM10.77 271.265C11.5567 271.525 11.984 272.373 11.7245 273.16C11.4649 273.946 10.6167 274.374 9.83002 274.114L10.77 271.265ZM372.403 84.0293C371.25 87.0892 370.067 90.1308 368.855 93.153L366.07 92.0365C367.274 89.0337 368.45 86.0115 369.596 82.9708L372.403 84.0293ZM361.195 111.137C358.495 117.113 355.675 122.999 352.736 128.787L350.061 127.429C352.979 121.682 355.779 115.837 358.461 109.901L361.195 111.137ZM343.464 146.016C340.216 151.712 336.845 157.295 333.349 162.755L330.823 161.137C334.29 155.722 337.635 150.183 340.857 144.53L343.464 146.016ZM322.344 178.958C318.507 184.282 314.541 189.467 310.445 194.501L308.118 192.607C312.176 187.62 316.107 182.482 319.91 177.204L322.344 178.958ZM297.618 209.301C293.165 214.121 288.577 218.773 283.853 223.245L281.791 221.066C286.464 216.642 291.005 212.038 295.414 207.265L297.618 209.301ZM269.16 236.203C264.095 240.357 258.891 244.313 253.548 248.06L251.825 245.604C257.105 241.901 262.249 237.99 267.258 233.883L269.16 236.203ZM237.068 258.682C231.448 261.997 225.689 265.091 219.793 267.951L218.484 265.251C224.306 262.428 229.993 259.373 235.544 256.098L237.068 258.682ZM201.803 275.772C195.746 278.111 189.557 280.213 183.237 282.066L182.393 279.187C188.633 277.357 194.742 275.283 200.722 272.974L201.803 275.772ZM164.209 286.801C157.874 288.103 151.417 289.165 144.84 289.976L144.473 286.999C150.971 286.198 157.348 285.149 163.604 283.862L164.209 286.801ZM125.337 291.619C118.911 291.916 112.379 291.98 105.74 291.803L105.819 288.804C112.387 288.979 118.847 288.915 125.199 288.623L125.337 291.619ZM86.1537 290.607C79.7738 290.001 73.3016 289.18 66.7374 288.136L67.2086 285.173C73.7118 286.208 80.1213 287.021 86.4372 287.62L86.1537 290.607ZM47.5288 284.497C41.2802 283.127 34.9528 281.559 28.5467 279.79L29.3454 276.898C35.7011 278.654 41.9765 280.208 48.1715 281.567L47.5288 284.497ZM368.193 82.4415C368.778 80.8912 370.508 80.1084 372.058 80.693C373.609 81.2776 374.392 83.0083 373.807 84.5586L368.193 82.4415ZM1.00001 269.5L34.9965 262.849L23.7584 295.616L1.00001 269.5ZM370.247 93.7112C369.631 95.2491 367.884 95.9958 366.346 95.3792C364.808 94.7626 364.062 93.016 364.678 91.4782L370.247 93.7112ZM357.094 109.284C357.776 107.774 359.553 107.103 361.063 107.785C362.573 108.467 363.244 110.244 362.562 111.754L357.094 109.284ZM354.074 129.466C353.324 130.943 351.518 131.533 350.041 130.783C348.563 130.032 347.974 128.227 348.724 126.749L354.074 129.466ZM339.554 143.787C340.375 142.348 342.207 141.846 343.646 142.667C345.086 143.487 345.587 145.319 344.767 146.759L339.554 143.787ZM334.612 163.564C333.719 164.959 331.864 165.366 330.468 164.473C329.073 163.579 328.666 161.724 329.559 160.329L334.612 163.564ZM318.693 176.327C319.662 174.983 321.536 174.678 322.881 175.647C324.225 176.616 324.529 178.491 323.561 179.835L318.693 176.327ZM311.608 195.447C310.563 196.732 308.673 196.926 307.388 195.881C306.103 194.835 305.909 192.945 306.954 191.66L311.608 195.447ZM294.312 206.248C295.437 205.031 297.335 204.955 298.552 206.08C299.769 207.204 299.844 209.102 298.72 210.319L294.312 206.248ZM284.884 224.334C283.681 225.473 281.782 225.421 280.643 224.218C279.504 223.014 279.556 221.116 280.759 219.977L284.884 224.334ZM266.307 232.723C267.588 231.673 269.478 231.86 270.529 233.141C271.58 234.422 271.393 236.312 270.111 237.363L266.307 232.723ZM254.409 249.288C253.053 250.24 251.182 249.911 250.23 248.555C249.279 247.198 249.607 245.327 250.964 244.376L254.409 249.288ZM234.782 254.806C236.209 253.964 238.049 254.439 238.89 255.866C239.732 257.293 239.258 259.132 237.831 259.974L234.782 254.806ZM220.447 269.3C218.956 270.023 217.162 269.401 216.439 267.91C215.716 266.419 216.338 264.625 217.829 263.902L220.447 269.3ZM200.181 271.574C201.727 270.977 203.464 271.747 204.061 273.292C204.658 274.838 203.889 276.575 202.343 277.172L200.181 271.574ZM183.659 283.505C182.069 283.971 180.402 283.06 179.936 281.47C179.47 279.88 180.381 278.214 181.971 277.748L183.659 283.505ZM163.302 282.393C164.925 282.059 166.511 283.104 166.845 284.727C167.179 286.35 166.134 287.936 164.511 288.27L163.302 282.393ZM145.024 291.465C143.379 291.668 141.882 290.499 141.679 288.855C141.477 287.21 142.645 285.713 144.29 285.51L145.024 291.465ZM125.13 287.124C126.785 287.048 128.188 288.328 128.265 289.983C128.341 291.638 127.061 293.042 125.406 293.118L125.13 287.124ZM105.7 293.303C104.044 293.259 102.737 291.88 102.781 290.224C102.825 288.568 104.203 287.261 105.859 287.305L105.7 293.303ZM86.5789 286.127C88.2284 286.284 89.4386 287.748 89.282 289.397C89.1254 291.047 87.6614 292.257 86.012 292.1L86.5789 286.127ZM66.5018 289.617C64.8655 289.357 63.75 287.82 64.0102 286.183C64.2705 284.547 65.8079 283.432 67.4442 283.692L66.5018 289.617ZM48.4929 280.102C50.1113 280.457 51.1355 282.056 50.7805 283.675C50.4255 285.293 48.8258 286.317 47.2074 285.962L48.4929 280.102ZM28.1473 281.236C26.5503 280.795 25.6132 279.142 26.0543 277.545C26.4954 275.948 28.1477 275.011 29.7448 275.452L28.1473 281.236ZM11.2399 269.841C12.8134 270.36 13.668 272.056 13.1489 273.629C12.6298 275.203 10.9335 276.058 9.36005 275.538L11.2399 269.841ZM373.807 84.5586C372.649 87.6281 371.463 90.6793 370.247 93.7112L364.678 91.4782C365.878 88.4852 367.05 85.4726 368.193 82.4415L373.807 84.5586ZM362.562 111.754C359.853 117.75 357.023 123.658 354.074 129.466L348.724 126.749C351.631 121.024 354.421 115.199 357.094 109.284L362.562 111.754ZM344.767 146.759C341.507 152.476 338.122 158.082 334.612 163.564L329.559 160.329C333.012 154.935 336.344 149.418 339.554 143.787L344.767 146.759ZM323.561 179.835C319.708 185.182 315.724 190.39 311.608 195.447L306.954 191.66C310.994 186.696 314.907 181.582 318.693 176.327L323.561 179.835ZM298.72 210.319C294.245 215.163 289.633 219.839 284.884 224.334L280.759 219.977C285.408 215.576 289.926 210.996 294.312 206.248L298.72 210.319ZM270.111 237.363C265.018 241.54 259.783 245.519 254.409 249.288L250.964 244.376C256.212 240.695 261.327 236.807 266.307 232.723L270.111 237.363ZM237.831 259.974C232.175 263.31 226.381 266.423 220.447 269.3L217.829 263.902C223.614 261.096 229.265 258.06 234.782 254.806L237.831 259.974ZM202.343 277.172C196.248 279.525 190.019 281.64 183.659 283.505L181.971 277.748C188.17 275.93 194.241 273.868 200.181 271.574L202.343 277.172ZM164.511 288.27C158.136 289.581 151.641 290.649 145.024 291.465L144.29 285.51C150.748 284.714 157.086 283.671 163.302 282.393L164.511 288.27ZM125.406 293.118C118.944 293.416 112.375 293.48 105.7 293.303L105.859 287.305C112.391 287.478 118.815 287.415 125.13 287.124L125.406 293.118ZM86.012 292.1C79.6 291.492 73.0965 290.666 66.5018 289.617L67.4442 283.692C73.9168 284.721 80.2951 285.531 86.5789 286.127L86.012 292.1ZM47.2074 285.962C40.9321 284.586 34.5786 283.012 28.1473 281.236L29.7448 275.452C36.0752 277.201 42.3246 278.749 48.4929 280.102L47.2074 285.962Z" fill="#E6E2E1"/>
</svg>
