<svg width="18" height="17" viewBox="0 0 18 17" fill="none" xmlns="http://www.w3.org/2000/svg">
<path d="M1 11V16H17V11" stroke="#009471" stroke-linecap="round" stroke-linejoin="round"/>
<path d="M9.5 1C9.5 0.723858 9.27614 0.5 9 0.5C8.72386 0.5 8.5 0.723858 8.5 1L9.5 1ZM8.64645 11.3536C8.84171 11.5488 9.15829 11.5488 9.35355 11.3536L12.5355 8.17157C12.7308 7.97631 12.7308 7.65973 12.5355 7.46447C12.3403 7.2692 12.0237 7.2692 11.8284 7.46447L9 10.2929L6.17157 7.46447C5.97631 7.2692 5.65973 7.2692 5.46447 7.46447C5.2692 7.65973 5.2692 7.97631 5.46447 8.17157L8.64645 11.3536ZM8.5 1L8.5 11L9.5 11L9.5 1L8.5 1Z" fill="#009471"/>
</svg>
