<svg width="24" height="24" viewBox="0 0 24 24" fill="none" xmlns="http://www.w3.org/2000/svg">
<path d="M4.66667 9.33331C3.19633 9.33331 2 10.5296 2 12C2 13.4703 3.19633 14.6666 4.66667 14.6666C6.137 14.6666 7.33333 13.4703 7.33333 12C7.33333 10.5296 6.137 9.33331 4.66667 9.33331Z" fill="#A69895"/>
<path d="M19.3334 9.33331C17.8631 9.33331 16.6667 10.5296 16.6667 12C16.6667 13.4703 17.8631 14.6666 19.3334 14.6666C20.8037 14.6666 22.0001 13.4703 22.0001 12C22.0001 10.5296 20.8037 9.33331 19.3334 9.33331Z" fill="#A69895"/>
<path d="M11.9999 9.33331C10.5296 9.33331 9.33325 10.5296 9.33325 12C9.33325 13.4703 10.5296 14.6666 11.9999 14.6666C13.4703 14.6666 14.6666 13.4703 14.6666 12C14.6666 10.5296 13.4703 9.33331 11.9999 9.33331Z" fill="#A69895"/>
</svg>
