<svg width="115" height="47" viewBox="0 0 115 47" fill="none" xmlns="http://www.w3.org/2000/svg">
<path d="M5.106 46.362C4.49366 46.3632 3.88711 46.2435 3.32114 46.0097C2.75517 45.776 2.24092 45.4328 1.80788 44.9998C1.37485 44.5669 1.03155 44.0527 0.797669 43.4868C0.563793 42.9209 0.443945 42.3143 0.444999 41.702V26.24C0.479364 25.5106 0.659639 24.7955 0.975165 24.1369C1.29069 23.4784 1.73506 22.8898 2.282 22.406C5.362 19.36 12.786 16.386 22.688 14.047C34.1156 11.4428 45.7994 10.1296 57.52 10.132V11.421C45.8978 11.4211 34.3122 12.7232 22.98 15.303C13.21 17.581 5.829 20.645 3.191 23.319C2.76523 23.6838 2.41692 24.1302 2.16666 24.6319C1.9164 25.1336 1.76928 25.6804 1.734 26.24V41.701C1.73426 42.5952 2.08961 43.4528 2.72193 44.0851C3.35424 44.7174 4.21177 45.0727 5.106 45.073H109.932C110.825 45.0704 111.681 44.7141 112.312 44.0821C112.943 43.4502 113.298 42.594 113.299 41.701V26.24C113.265 25.6803 113.12 25.1331 112.87 24.6311C112.62 24.1291 112.272 23.6825 111.846 23.318C109.206 20.644 101.831 17.58 92.056 15.302C80.725 12.7228 69.1408 11.421 57.52 11.421V10.132C69.2399 10.1302 80.923 11.4434 92.35 14.047C102.246 16.387 109.675 19.36 112.759 22.407C113.305 22.8915 113.748 23.4801 114.063 24.1383C114.378 24.7966 114.559 25.5111 114.594 26.24V41.701C114.593 42.9368 114.102 44.1216 113.228 44.9953C112.354 45.869 111.169 46.3602 109.933 46.361H5.106" fill="#008E6A"/>
<path d="M57.52 12.383C85.632 12.383 112.34 20.416 112.34 26.24V41.701C112.34 42.0173 112.278 42.3306 112.157 42.623C112.036 42.9153 111.859 43.1809 111.635 43.4047C111.412 43.6284 111.146 43.8058 110.854 43.9269C110.562 44.0479 110.248 44.1101 109.932 44.11H5.10599C4.78944 44.1104 4.47593 44.0483 4.18341 43.9273C3.89089 43.8064 3.62513 43.6288 3.40134 43.405C3.17755 43.1811 3.00014 42.9152 2.87928 42.6227C2.75841 42.3301 2.69647 42.0166 2.69699 41.7V26.24C2.69699 20.415 29.403 12.383 57.52 12.383Z" fill="white"/>
<path d="M41.585 5.35L33.419 7.162L36.367 10.372L35.497 15.461L44.665 13.989L41.585 5.35Z" fill="#008E6A"/>
<path d="M35.75 10.555L32.325 6.815L41.463 4.793L41.956 4.685L45.434 14.445L34.792 16.157L35.751 10.555H35.75ZM34.513 7.507L36.977 10.197L36.193 14.771L43.896 13.532L41.216 6.025L34.513 7.507ZM41.045 5.547L41.585 5.357L41.045 5.547Z" fill="#DB052C"/>
<path d="M73.591 5.35L81.757 7.162L78.806 10.372L79.681 15.461L70.509 13.989L73.591 5.35Z" fill="#008E6A"/>
<path d="M69.734 14.445L73.046 5.163L73.218 4.685L82.846 6.815L79.418 10.555L80.381 16.155L69.734 14.445ZM71.277 13.532L78.977 14.772L78.198 10.197L80.661 7.507L73.954 6.025L71.277 13.532Z" fill="#DA102E"/>
<path d="M57.584 12.355C61.47 12.219 71.721 13.292 71.721 13.292L75.303 4.085C75.303 4.085 73.07 0.870003 57.584 0.870003C42.28 0.870003 39.871 4.085 39.871 4.085L43.45 13.292C43.45 13.292 53.703 12.219 57.584 12.355Z" fill="#008E6A"/>
<path d="M71.658 13.866C71.651 13.866 62.577 12.918 58.338 12.918C58.074 12.918 57.825 12.925 57.604 12.927L57.584 12.933L57.565 12.927C57.347 12.925 57.103 12.917 56.838 12.917C52.592 12.917 43.524 13.867 43.509 13.867L43.078 13.91L39.22 3.995L39.412 3.74C39.615 3.497 42.212 0.304997 57.584 0.296997C73.132 0.304997 75.561 3.489 75.774 3.757L75.948 4.004L72.098 13.91L71.658 13.866ZM71.348 12.677L74.632 4.227L74.395 4.057C73.6737 3.60718 72.8936 3.25923 72.077 3.023C69.663 2.245 65.287 1.443 57.585 1.443C45.229 1.441 41.425 3.561 40.549 4.235L43.828 12.677C45.689 12.495 53.038 11.773 56.838 11.773C57.103 11.773 57.356 11.778 57.588 11.785C57.818 11.778 58.067 11.773 58.339 11.773C62.136 11.773 69.487 12.495 71.349 12.677H71.348ZM57.585 12.355L57.609 11.785L57.585 12.355Z" fill="#DB052C"/>
<path d="M10.034 41.194V38.168C10.497 37.894 10.45 37.454 10.45 37.018V27.214L8.98001 27.866L8.97001 37.019C8.97001 37.454 8.93401 37.894 9.39801 38.168V41.194H4.69701V38.168C4.82116 38.1026 4.92535 38.0049 4.99857 37.8852C5.0718 37.7656 5.11133 37.6283 5.11301 37.488V31.516C5.11301 30.604 5.15601 30.641 4.69701 30.361V26.902C7.78353 24.8675 11.1671 23.3245 14.727 22.328V25.603C14.266 25.875 14.31 26.469 14.31 26.907V37.019C14.31 37.454 14.266 37.894 14.728 38.168V41.194H10.034ZM31.728 41.194V38.168C32.191 37.894 32.445 37.894 32.445 37.454V21.42L30.417 21.73L30.463 37.478C30.463 37.913 30.625 37.895 31.094 38.168V41.194H26.389V38.168C26.849 37.894 26.812 37.454 26.812 37.018V23.784C26.7775 23.5289 26.6834 23.2855 26.5372 23.0735C26.3911 22.8616 26.1972 22.687 25.971 22.564L25.814 19.624C29.166 18.729 37.054 17.716 37.054 17.716V20.744C36.8441 20.8694 36.6698 21.0464 36.5476 21.2582C36.4254 21.47 36.3595 21.7095 36.356 21.954L36.011 37.019C36.011 37.455 35.963 37.895 36.427 38.169V41.194H31.727H31.728ZM15.589 41.194V38.168C16.004 37.894 16.266 35.878 16.383 35.426L18.066 21.353C19.6579 20.8461 21.2912 20.4793 22.947 20.257L24.389 35.603C24.457 35.974 24.82 38.045 25.249 38.168V41.194H20.875V38.168C21.184 38.062 21.323 36.896 21.323 36.583L21.266 34.828H19.402L19.344 36.583C19.344 36.911 19.515 38.089 19.849 38.168V41.194H15.589ZM20.287 25.208H20.256L19.649 32.069H20.922L20.287 25.208ZM37.35 41.194V38.168C37.77 37.894 38.03 35.878 38.148 35.426L39.704 17.382C41.59 17.158 44.607 16.882 44.607 16.882L47.08 35.603C47.153 35.974 47.516 38.045 47.95 38.168V41.194H43.134V38.168C43.446 38.062 43.587 36.896 43.587 36.583L43.529 33.889H41.168L41.108 36.583C41.108 36.913 41.284 38.089 41.618 38.168V41.194H37.349H37.35ZM42.294 22.488H42.261L41.411 30.657H43.183L42.294 22.488ZM52.97 35.906V20.538C52.97 20.102 53.012 19.66 52.553 19.387V16.477C57.347 16.231 62.77 16.477 62.77 16.477V19.387C62.308 19.66 62.347 20.102 62.347 20.542V37.02C62.347 37.593 62.951 37.92 63.69 38.169V42.359H60.094V41.561C60.094 41.023 59.961 41.195 59.416 41.195H56.555C56.007 41.195 55.876 41.023 55.876 41.56V42.359H51.554V38.103C52.984 38.09 52.969 36.73 52.969 35.907L52.97 35.906ZM58.769 19.342H56.797V35.019C56.8331 35.7037 56.7191 36.388 56.463 37.024H58.77L58.769 19.342ZM74.674 20.191C74.205 20.467 74.253 20.901 74.253 21.339L74.143 27.124L76.106 22.328C76.2669 22.0261 76.3552 21.6909 76.3639 21.3489C76.3726 21.0069 76.3014 20.6676 76.156 20.358V17.351C77.451 17.456 80.355 17.855 80.355 17.855V20.83C80.0758 20.9236 79.8241 21.085 79.6227 21.2999C79.4213 21.5148 79.2764 21.7763 79.201 22.061L76.654 29.363L78.511 36.888C78.6295 37.2325 78.846 37.5349 79.134 37.758C79.422 37.9811 79.7688 38.1153 80.132 38.144L80.125 41.665H75.701L75.694 38.145C75.977 37.703 75.81 37.525 75.588 36.645L74.172 31.42H74.142V36.858C74.142 37.295 74.116 37.868 74.58 38.144L74.56 41.664H69.86L69.88 38.144C70.343 37.869 70.28 37.249 70.28 36.809V32.327L70.248 31.42L68.806 36.57C68.583 37.534 68.442 37.759 68.681 38.144L68.715 41.665H64.439V38.262C64.7531 38.1645 65.0429 38.0015 65.2894 37.7838C65.5359 37.5661 65.7334 37.2986 65.869 36.999L67.639 29.455L65.333 21.87C64.75 19.65 64.455 19.795 64.03 19.443V16.498C64.915 16.49 68.715 16.713 68.715 16.713L68.705 19.68C68.542 19.833 67.653 20.025 68.569 22.647L70.279 27.124L70.392 21.02C70.392 20.576 70.432 19.971 69.969 19.698V16.8C70.671 16.81 74.673 17.175 74.673 17.175V20.191H74.674ZM85.313 41.918C84.7132 41.9692 84.1095 41.8897 83.5434 41.685C82.9773 41.4802 82.4624 41.1551 82.0341 40.7321C81.6059 40.309 81.2744 39.7982 81.0628 39.2346C80.8511 38.6711 80.7642 38.0684 80.808 37.468V22.38C80.808 19.545 82.652 18.141 85.313 18.292C88.911 18.488 89.809 20.048 89.809 22.883V37.468C89.853 38.0676 89.7665 38.6697 89.5555 39.2327C89.3445 39.7957 89.0139 40.3062 88.5866 40.7292C88.1592 41.1521 87.6453 41.4774 87.0802 41.6826C86.5151 41.8879 85.9122 41.9682 85.313 41.918ZM85.313 38.532C86.083 38.532 86.041 37.72 86.041 37.641V22.677C86.041 22.596 86.082 21.793 85.313 21.793C84.533 21.793 84.576 22.596 84.576 22.677V37.64C84.576 37.72 84.532 38.531 85.313 38.531V38.532ZM96.561 41.194V38.168C97.024 37.894 96.979 37.454 96.979 37.018V32.934H95.502V37.019C95.502 37.454 95.464 37.894 95.924 38.168V41.194H91.222V38.168C91.692 37.894 91.646 37.454 91.646 36.546V23.541C91.6443 23.3996 91.6039 23.2613 91.5291 23.1413C91.4544 23.0212 91.3482 22.9239 91.222 22.86V19.7L95.924 20.835V23.97C95.464 24.244 95.502 24.571 95.502 25.013V30.643H96.979V25.3C96.979 24.865 97.024 24.425 96.561 24.148V20.965L101.261 22.174V25.514C101.136 25.5781 101.03 25.6754 100.957 25.7953C100.883 25.9153 100.844 26.0532 100.843 26.194V36.545C100.843 37.453 100.797 37.893 101.261 38.167V41.193H96.561V41.194ZM106.977 27.848C106.167 27.848 106.267 28.67 106.267 29.148V37.588C106.267 38.068 106.167 38.892 106.977 38.892C107.782 38.892 107.957 38.067 107.957 37.588V36.255H110.922V40.18C109.835 40.9461 108.549 41.3801 107.22 41.4293C105.891 41.4785 104.576 41.1407 103.435 40.457C102.362 39.51 102.407 38.274 102.407 36.987V28.527C102.346 27.9654 102.408 27.3971 102.589 26.8621C102.771 26.3271 103.067 25.8383 103.458 25.43C104.298 24.774 105.676 24.799 107.138 24.854C108.611 24.911 109.671 26.032 110.922 26.812V30.344H107.957V29.148C107.957 28.67 107.782 27.848 106.977 27.848ZM104.08 22.452C104.213 22.556 104.313 22.697 104.367 22.8574C104.421 23.0179 104.426 23.1906 104.382 23.354C104.268 23.971 103.62 24.434 103.127 24.854C102.988 24.762 102.754 24.587 102.943 24.412C103.058 24.212 103.337 24.078 103.289 23.821C103.012 23.617 102.568 23.486 102.568 23.091C102.501 22.805 102.661 22.628 102.754 22.431C102.95 22.2984 103.183 22.2294 103.42 22.2333C103.657 22.2372 103.887 22.3139 104.079 22.453" fill="#DA102E"/>
<path d="M48.975 4.886C48.591 4.983 48.442 5.081 48.498 5.524L48.888 8.702C48.954 9.219 49.085 9.334 49.518 9.282L49.549 9.546L47.37 9.831L47.345 9.577C47.885 9.489 47.852 9.182 47.822 8.952L47.411 5.652C47.37 5.324 47.266 5.166 46.952 5.212L46.158 5.319C45.842 5.367 45.785 5.547 45.823 5.868L46.229 9.171C46.284 9.599 46.452 9.695 46.842 9.649L46.899 9.889L44.708 10.254L44.67 9.952C45.219 9.864 45.171 9.544 45.147 9.322L44.743 6.042C44.687 5.597 44.521 5.55 44.124 5.552L44.099 5.373C45.727 5.047 48.938 4.623 48.938 4.623L48.975 4.886ZM54.767 4.217L54.787 4.483C54.397 4.552 54.242 4.639 54.269 5.085L54.473 8.348C54.499 8.793 54.661 8.858 55.059 8.873L55.075 9.138L52.885 9.274L52.873 9.025C53.332 8.979 53.406 8.757 53.384 8.427L53.175 5.031L53.108 5.038L51.708 9.363L50.038 9.51L50.023 9.22C50.417 9.153 50.573 9.066 50.545 8.621L50.342 5.357C50.311 4.911 50.152 4.85 49.755 4.831L49.738 4.568L51.904 4.364L51.934 4.68C51.534 4.774 51.401 4.842 51.427 5.278L51.632 8.541L51.697 8.533L53.088 4.303L54.766 4.217H54.767ZM60.622 4.456C60.227 4.497 60.068 4.571 60.068 5.007V8.254C60.068 8.691 60.271 8.786 60.668 8.77L60.772 10.54H60.43C60.42 10.1494 60.3016 9.76923 60.088 9.442C59.9724 9.29852 59.823 9.18596 59.6532 9.1144C59.4833 9.04285 59.2984 9.01454 59.115 9.032C59.115 9.032 56.564 8.979 55.728 9.057L55.723 8.77C56.115 8.761 56.276 8.645 56.276 8.223V5.007C56.276 4.571 56.115 4.497 55.723 4.457V4.226L57.921 4.194V4.456C57.524 4.497 57.365 4.571 57.365 5.007V8.287C57.365 8.529 57.4 8.77 57.77 8.77H58.574C58.938 8.77 58.978 8.53 58.978 8.287V5.007C58.978 4.571 58.816 4.497 58.424 4.457V4.194L60.622 4.248V4.456ZM66.343 4.937C65.945 4.954 65.784 5.017 65.759 5.447L65.544 8.674C65.515 9.104 65.713 9.214 66.111 9.227L66.098 10.993L65.756 10.97C65.7709 10.5804 65.6781 10.1943 65.488 9.854C65.3815 9.70281 65.2396 9.58 65.0747 9.49633C64.9098 9.41265 64.7269 9.37065 64.542 9.374C64.542 9.374 61.967 9.122 61.154 9.124L61.17 8.869C61.567 8.889 61.733 8.786 61.758 8.364L61.971 5.167C62.001 4.738 61.847 4.655 61.458 4.577L61.474 4.321L63.668 4.482L63.645 4.741C63.252 4.753 63.086 4.814 63.057 5.251L62.846 8.51C62.832 8.75 62.846 8.987 63.215 9.018L64.021 9.076C64.386 9.1 64.437 8.869 64.455 8.63L64.668 5.367C64.695 4.934 64.542 4.855 64.15 4.779L64.169 4.52L66.358 4.728L66.343 4.938V4.937ZM71.217 10.286C70.244 10.092 68.88 9.934 68.88 9.934L68.92 9.671C69.198 9.694 69.555 9.719 69.598 9.41L69.588 9.156L69.444 8.256L67.956 8.038L67.701 8.621L67.606 8.91C67.5862 9.05519 67.6235 9.20238 67.7101 9.32062C67.7966 9.43886 67.9256 9.51893 68.07 9.544L68.037 9.808L66.55 9.585L66.588 9.323C67.018 9.226 67.263 8.735 67.398 8.448L69.013 4.938L69.985 5.087L70.69 8.985C70.763 9.403 70.872 10.055 71.253 10.022L71.218 10.286H71.217ZM69.38 7.894L69.028 5.885L68.927 5.868L68.097 7.705L69.38 7.894Z" fill="white"/>
</svg>
