<svg width="48" height="48" viewBox="0 0 48 48" fill="none" xmlns="http://www.w3.org/2000/svg">
<path d="M0 3C0 1.34315 1.34315 0 3 0H48V48H3C1.34315 48 0 46.6569 0 45V3Z" fill="#E8B81A"/>
<path d="M30.3223 26.7113C29.1545 26.7113 28.1244 27.2629 27.4515 28.1077L21.2095 24.9426C21.2913 24.6404 21.35 24.3281 21.35 23.9995C21.35 23.6418 21.2802 23.305 21.1829 22.9773L27.3973 19.8268C28.0666 20.7098 29.1232 21.2869 30.3232 21.2869C32.3558 21.2869 34 19.6566 34 17.643C34 15.6312 32.3558 14 30.3232 14C28.2952 14 26.6491 15.6312 26.6491 17.643C26.6491 17.9725 26.7079 18.2856 26.7905 18.5888L20.5495 21.7539C19.8756 20.9082 18.8437 20.3548 17.6741 20.3548C15.6433 20.3548 14 21.9869 14 23.9995C14 26.0122 15.6433 27.6434 17.6741 27.6434C18.8758 27.6434 19.9316 27.0645 20.6036 26.1806L26.8152 29.3311C26.7179 29.6579 26.6472 29.9974 26.6472 30.3561C26.6472 32.3688 28.2933 34 30.3213 34C32.3539 34 33.9982 32.3688 33.9982 30.3561C33.9991 28.3416 32.3549 26.7113 30.3223 26.7113Z" fill="#F8F8F8"/>
</svg>
